<svg height="512pt" viewBox="0 0 512 512" width="512pt" xmlns="http://www.w3.org/2000/svg"><path d="m512 256c0 141.386719-114.613281 256-256 256s-256-114.613281-256-256 114.613281-256 256-256 256 114.613281 256 256zm0 0" fill="#4a5be5"/><path d="m512 256c0-18.925781-2.074219-37.367188-5.96875-55.125l-68.972656-68.96875-26.144532 13.761719-31.347656-30.832031-1.21875 31.164062-53.738281-53.847656-24.695313 6.0625-43.914062-44.214844-14.980469 51.316406-53.628906-13.164062 38.421875 38.378906-38.421875 37.925781 60.945313 61.308594h-4.210938l-79.5625-79.925781-11.6875 1.761718-37.007812-36.765624-15.296876 39.003906-39.367187-14.332032 26.132813 32.75-32.097657 26.925782 94.152344 93.203125c-2.421875 3.292969-5.347656 7.269531-7.679687 12.058593l-40.484376-40.867187c-4.019531-4.351563-9.773437-7.078125-16.164062-7.078125-12.152344 0-22 9.851562-22 22 0 6.613281 2.917969 12.539062 7.53125 16.574219l33.832031 33.898437c-10.902343 1.289063-19.363281 10.558594-19.363281 21.808594 0 6.238281 2.601562 11.871094 6.777344 15.867188l144.617187 144.617187c6.449219.484375 12.96875.734375 19.542969.734375 141.386719 0 256-114.613281 256-256zm0 0" fill="#1c2ede"/><path d="m266.5625 420.570312h-30c0-18.851562 11.597656-28.734374 19.273438-35.269531 6.960937-5.933593 8.726562-7.925781 8.726562-12.433593 0-4.507813-1.765625-6.503907-8.726562-12.433594-7.675782-6.539063-19.273438-16.417969-19.273438-35.273438 0-18.851562 11.597656-28.730468 19.273438-35.265625 6.960937-5.929687 8.726562-7.925781 8.726562-12.429687 0-4.507813-1.765625-6.5-8.726562-12.429688-7.675782-6.539062-19.273438-16.417968-19.273438-35.269531h30c0 4.507813 1.765625 6.5 8.726562 12.429687 7.675782 6.539063 19.273438 16.417969 19.273438 35.269532 0 18.851562-11.597656 28.730468-19.273438 35.265625-6.960937 5.929687-8.726562 7.925781-8.726562 12.429687 0 4.507813 1.765625 6.503906 8.726562 12.433594 7.675782 6.539062 19.273438 16.417969 19.273438 35.273438 0 18.851562-11.597656 28.730468-19.273438 35.269531-6.960937 5.929687-8.726562 7.925781-8.726562 12.433593zm0 0" fill="#fff"/><path d="m294.558594 372.871094c0 18.847656-11.597656 28.730468-19.269532 35.269531-6.960937 5.929687-8.730468 7.917969-8.730468 12.429687h-10.558594v-35.410156c6.828125-5.820312 8.558594-7.832031 8.558594-12.289062 0-4.472656-1.730469-6.480469-8.558594-12.292969v-70.816406c6.828125-5.820313 8.558594-7.832031 8.558594-12.292969 0-4.46875-1.730469-6.480469-8.558594-12.289062v-35.410157h10.558594c0 4.5 1.769531 6.5 8.730468 12.429688 7.671876 6.53125 19.269532 16.410156 19.269532 35.269531 0 18.851562-11.597656 28.730469-19.269532 35.261719-6.960937 5.929687-8.730468 7.929687-8.730468 12.429687 0 4.511719 1.769531 6.511719 8.730468 12.441406 7.671876 6.527344 19.269532 16.410157 19.269532 35.269532zm0 0" fill="#fff5cb"/><path d="m351.9375 423.535156-29.40625-5.933594c3.726562-18.480468 17.050781-25.871093 25.867188-30.761718 7.996093-4.433594 10.121093-6.042969 11.015624-10.460938.890626-4.417968-.445312-6.722656-6.097656-13.914062-6.230468-7.925782-15.644531-19.902344-11.914062-38.386719 3.726562-18.476563 17.050781-25.867187 25.867187-30.757813 7.996094-4.433593 10.121094-6.039062 11.011719-10.457031s-.445312-6.722656-6.09375-13.910156c-6.230469-7.925781-15.648438-19.902344-11.917969-38.382813l29.40625 5.933594c-.890625 4.417969.445313 6.722656 6.097657 13.910156 6.230468 7.925782 15.644531 19.90625 11.914062 38.386719-3.726562 18.476563-17.050781 25.867188-25.867188 30.757813-7.996093 4.433594-10.121093 6.039062-11.011718 10.457031-.894532 4.417969.445312 6.726563 6.09375 13.914063 6.230468 7.925781 15.648437 19.90625 11.917968 38.386718-3.730468 18.480469-17.050781 25.871094-25.867187 30.761719-8 4.433594-10.125 6.039063-11.015625 10.457031zm0 0" fill="#fff5cb"/><path d="m160.546875 424.003906c-4.316406-18.351562 4.710937-30.625 10.6875-38.746094 5.417969-7.367187 6.679687-9.710937 5.648437-14.101562-1.035156-4.386719-3.210937-5.925781-11.34375-10.101562-8.96875-4.609376-22.519531-11.570313-26.835937-29.921876-4.316406-18.351562 4.710937-30.625 10.6875-38.746093 5.417969-7.363281 6.679687-9.710938 5.648437-14.097657-1.03125-4.386718-3.207031-5.921874-11.339843-10.101562-8.96875-4.605469-22.519531-11.566406-26.835938-29.917969l29.203125-6.867187c1.03125 4.382812 3.207032 5.921875 11.339844 10.101562 8.96875 4.605469 22.519531 11.566406 26.835938 29.917969 4.316406 18.351563-4.710938 30.625-10.6875 38.742187-5.417969 7.367188-6.679688 9.714844-5.648438 14.097657 1.03125 4.390625 3.207031 5.929687 11.339844 10.105469 8.96875 4.609374 22.523437 11.570312 26.839844 29.921874 4.3125 18.351563-4.714844 30.625-10.6875 38.746094-5.417969 7.367188-6.679688 9.710938-5.648438 14.101563zm0 0" fill="#fff"/><path d="m256 54 14.980469 51.316406 53.628906-13.164062-38.648437 38.152344 38.648437 38.152343-53.628906-13.160156-14.980469 51.3125-14.980469-51.3125-53.628906 13.160156 38.648437-38.152343-38.648437-38.152344 53.628906 13.164062zm0 0" fill="#ffec97"/><path d="m285.960938 130.308594 38.648437 38.152344-53.628906-13.171876-14.980469 51.320313v-152.609375l14.980469 51.320312 53.628906-13.171874zm0 0" fill="#ffd400"/><path d="m115.863281 114.835938 7.273438 41.257812 41.425781-6.253906-32.09375 26.925781 26.128906 32.746094-39.367187-14.328125-15.292969 39-7.273438-41.257813-41.425781 6.257813 32.09375-26.929688-26.128906-32.746094 39.367187 14.332032zm0 0" fill="#54fbff"/><path d="m379.566406 114.835938 20.421875 36.582031 37.070313-19.511719-21.46875 35.972656 35.433594 22.347656-41.890626-.605468-1.636718 41.863281-20.417969-36.582031-37.074219 19.511718 21.472656-35.972656-35.4375-22.351562 41.890626.609375zm0 0" fill="#00d6d6"/><path d="m107.0625 278.5c0 12.148438-9.851562 22-22 22-12.152344 0-22-9.851562-22-22s9.847656-22 22-22c12.148438 0 22 9.851562 22 22zm0 0" fill="#ffec97"/><path d="m448.0625 336c0 12.148438-9.851562 22-22 22-12.152344 0-22-9.851562-22-22s9.847656-22 22-22c12.148438 0 22 9.851562 22 22zm0 0" fill="#00d6d6"/><path d="m223.796875 226.632812c0 7.660157-6.210937 13.867188-13.867187 13.867188-7.660157 0-13.867188-6.207031-13.867188-13.867188 0-7.660156 6.207031-13.867187 13.867188-13.867187 7.65625 0 13.867187 6.207031 13.867187 13.867187zm0 0" fill="#54fbff"/><path d="m329.429688 316.5c0 7.660156-6.210938 13.867188-13.867188 13.867188-7.660156 0-13.867188-6.207032-13.867188-13.867188s6.207032-13.867188 13.867188-13.867188c7.65625 0 13.867188 6.207032 13.867188 13.867188zm0 0" fill="#00d6d6"/><path d="m456.761719 254.367188c0 7.660156-6.207031 13.867187-13.867188 13.867187-7.65625 0-13.867187-6.207031-13.867187-13.867187 0-7.660157 6.210937-13.867188 13.867187-13.867188 7.660157 0 13.867188 6.207031 13.867188 13.867188zm0 0" fill="#ffd400"/><path d="m338.445312 222.125c0 10.148438-8.226562 18.375-18.375 18.375-10.148437 0-18.375-8.226562-18.375-18.375s8.226563-18.375 18.375-18.375c10.148438 0 18.375 8.226562 18.375 18.375zm0 0" fill="#ffd400"/><path d="m129 350.78125c0 12.132812-9.835938 21.96875-21.96875 21.96875s-21.96875-9.835938-21.96875-21.96875 9.835938-21.96875 21.96875-21.96875 21.96875 9.835938 21.96875 21.96875zm0 0" fill="#54fbff"/><path d="m228.304688 316.5c0 10.148438-8.226563 18.375-18.375 18.375-10.148438 0-18.375-8.226562-18.375-18.375s8.226562-18.375 18.375-18.375c10.148437 0 18.375 8.226562 18.375 18.375zm0 0" fill="#ffec97"/></svg>