<?xml version="1.0" encoding="iso-8859-1"?>
<!-- Generator: Adobe Illustrator 19.0.0, SVG Export Plug-In . SVG Version: 6.00 Build 0)  -->
<svg version="1.1" id="Layer_1" xmlns="http://www.w3.org/2000/svg" xmlns:xlink="http://www.w3.org/1999/xlink" x="0px" y="0px"
	 viewBox="0 0 512.002 512.002" style="enable-background:new 0 0 512.002 512.002;" xml:space="preserve">
<g>
	<polygon style="fill:#F95428;" points="427.084,179.067 362.448,197.029 321.069,208.523 330.589,160.096 368.254,167.503 	"/>
	<polygon style="fill:#F95428;" points="416.983,230.49 406.882,281.901 342.235,299.862 300.855,311.357 310.956,259.934 
		352.347,248.44 	"/>
</g>
<g>
	<polygon style="fill:#2BA5F7;" points="406.882,281.901 396.769,333.312 332.122,351.273 290.847,362.744 290.742,362.768 
		290.754,362.721 300.843,311.357 300.855,311.357 342.235,299.862 	"/>
	<polygon style="fill:#2BA5F7;" points="427.095,179.067 416.983,230.49 352.347,248.44 310.956,259.934 321.069,208.523 
		362.448,197.029 427.084,179.067 	"/>
</g>
<g>
	<polygon style="fill:#2197D8;" points="342.235,299.862 337.939,321.702 332.122,351.273 290.847,362.744 290.754,362.721 
		300.843,311.357 300.855,311.357 	"/>
	<polygon style="fill:#2197D8;" points="362.448,197.029 358.152,218.879 352.347,248.44 310.956,259.934 321.069,208.523 	"/>
</g>
<g>
	<polygon style="fill:#E54728;" points="310.956,259.934 352.347,248.44 348.051,270.29 342.235,299.862 300.855,311.357 	"/>
	<polygon style="fill:#E54728;" points="368.254,167.503 362.448,197.029 321.069,208.523 330.589,160.096 	"/>
</g>
<g>
	<polygon style="fill:#F95428;" points="256.875,325.44 168.67,297.668 123.923,283.584 113.335,218.055 158.093,232.15 
		246.297,259.922 	"/>
	<polygon style="fill:#F95428;" points="235.72,194.405 147.504,166.632 102.757,152.537 92.18,87.008 92.192,87.008 
		136.927,101.091 225.132,128.875 	"/>
</g>
<g>
	<polygon style="fill:#E54728;" points="147.504,166.632 102.757,152.537 92.18,87.008 92.192,87.008 136.927,101.091 
		142.419,135.145 	"/>
	<polygon style="fill:#E54728;" points="168.67,297.668 123.923,283.584 113.335,218.055 158.093,232.15 166.534,284.42 	"/>
</g>
<g>
	<polygon style="fill:#F7B239;" points="256.875,325.44 230.914,329.631 183.984,337.213 175.288,338.618 133.885,345.306 
		123.923,283.584 168.67,297.668 	"/>
	<polygon style="fill:#F7B239;" points="246.297,259.922 158.093,232.15 113.335,218.055 102.757,152.537 147.504,166.632 
		235.72,194.405 	"/>
</g>
<g>
	<polygon style="fill:#E09B2D;" points="158.093,232.15 113.335,218.055 102.757,152.537 147.504,166.632 154.482,209.788 	"/>
	<polygon style="fill:#E09B2D;" points="175.288,338.618 133.885,345.306 123.923,283.584 168.67,297.668 	"/>
</g>
<polygon style="fill:#F95428;" points="248.945,61.697 215.17,67.154 92.192,87.008 92.18,87.008 58.405,92.465 142.628,8.707 "/>
<polygon style="fill:#E54728;" points="142.628,8.707 134.414,80.191 58.405,92.465 "/>
<polygon style="fill:#2BA5F7;" points="389.396,115.929 453.59,184.28 427.095,179.067 427.084,179.067 330.589,160.096 
	304.094,154.883 "/>
<polygon style="fill:#2197D8;" points="389.396,115.929 366.258,167.108 304.094,154.883 "/>
<polygon style="fill:#F7B239;" points="215.17,67.154 225.132,128.875 92.192,87.008 "/>
<polygon style="fill:#F95428;" points="396.769,333.312 387.248,381.739 348.702,374.158 311.107,366.773 290.742,362.768 "/>
<g>
	<path style="fill:#333333;" d="M240.896,336.846l17.369-2.805c2.28-0.368,4.321-1.627,5.673-3.499
		c1.351-1.873,1.904-4.205,1.536-6.484L225.156,74.362l25.171-4.065c3.733-0.604,6.652-3.547,7.221-7.286
		c0.569-3.739-1.339-7.418-4.723-9.105L146.518,0.914c-3.343-1.665-7.377-1.015-10.026,1.62L52.267,86.291
		c-2.682,2.666-3.336,6.758-1.618,10.129c1.502,2.949,4.522,4.754,7.756,4.754c0.46,0,0.925-0.037,1.391-0.111l25.171-4.065
		l40.317,249.694c0.691,4.278,4.388,7.322,8.586,7.322c0.461,0,0.929-0.037,1.399-0.113l40.102-6.475
		c-0.676,4.108-2.291,8.032-4.796,11.503c-4.262,5.904-10.577,9.797-17.779,10.959c-4.748,0.767-7.975,5.237-7.208,9.985
		c0.691,4.277,4.388,7.32,8.586,7.32c0.461,0,0.929-0.037,1.399-0.113c21.391-3.454,36.799-21.642,37.545-42.521l30.585-4.938
		l26.652,165.058c0.691,4.278,4.388,7.322,8.587,7.322c0.46,0,0.929-0.037,1.398-0.113c4.749-0.767,7.975-5.237,7.209-9.985
		L240.896,336.846z M124.181,230.602l114.376,36.012l7.474,46.286l-114.376-36.012L124.181,230.602z M224.871,181.855
		l-114.376-36.011l-7.474-46.286l114.376,36.011L224.871,181.855z M227.977,201.091l7.474,46.286l-114.376-36.012l-7.474-46.286
		L227.977,201.091z M214.292,116.332l-84.431-26.583l78.102-12.611L214.292,116.332z M144.341,19.289l76.49,38.129L83.739,79.555
		L144.341,19.289z M134.76,296.125l84.432,26.584l-78.104,12.611L134.76,296.125z"/>
	<path style="fill:#333333;" d="M459.941,178.321l-64.201-68.348c-2.558-2.723-6.567-3.511-9.964-1.96l-85.301,38.953
		c-3.44,1.571-5.473,5.183-5.031,8.939c0.441,3.756,3.258,6.797,6.967,7.526l17.952,3.53l-38.169,194.124
		c-0.446,2.266,0.027,4.616,1.315,6.533c1.286,1.917,3.283,3.245,5.549,3.69l11.83,2.326l-25.112,127.714
		c-0.928,4.718,2.146,9.296,6.864,10.224c0.568,0.111,1.133,0.166,1.689,0.166c4.078,0,7.719-2.878,8.536-7.029l25.112-127.714
		l21.346,4.197c0.034,20.892,14.814,39.595,36.075,43.775c0.568,0.111,1.133,0.166,1.689,0.166c4.078,0,7.719-2.878,8.536-7.03
		c0.928-4.718-2.146-9.296-6.864-10.224c-11.775-2.315-20.288-11.929-21.781-23.216l28.591,5.622
		c0.568,0.111,1.133,0.166,1.689,0.166c4.078,0,7.719-2.878,8.536-7.03l38.169-194.123l17.952,3.53
		c0.562,0.11,1.125,0.165,1.682,0.165c3.122,0,6.064-1.685,7.618-4.492C463.045,185.189,462.529,181.077,459.941,178.321z
		 M387.325,126.451l41.391,44.065l-96.386-18.952L387.325,126.451z M389.263,326.357l-87.257,24.24l6.35-32.292l87.257-24.24
		L389.263,326.357z M399.372,274.945l-87.257,24.239l6.35-32.292l87.256-24.239L399.372,274.945z M409.48,223.533l-87.256,24.239
		l6.35-32.292l87.256-24.239L409.48,223.533z M389.34,180.523l-57.007,15.837l5.12-26.039L389.34,180.523z M328.496,361.314
		l57.007-15.837l-5.12,26.039L328.496,361.314z"/>
</g>
<g>
</g>
<g>
</g>
<g>
</g>
<g>
</g>
<g>
</g>
<g>
</g>
<g>
</g>
<g>
</g>
<g>
</g>
<g>
</g>
<g>
</g>
<g>
</g>
<g>
</g>
<g>
</g>
<g>
</g>
</svg>
