<?xml version="1.0" encoding="utf-8"?>
<!-- Generator: Adobe Illustrator 22.0.1, SVG Export Plug-In . SVG Version: 6.00 Build 0)  -->
<svg version="1.1" id="Layer_1" xmlns="http://www.w3.org/2000/svg" xmlns:xlink="http://www.w3.org/1999/xlink" x="0px" y="0px"
	 viewBox="0 0 1280 640" enable-background="new 0 0 1280 640" xml:space="preserve">
<path fill="none" stroke="#D1B387" stroke-width="1.028" stroke-miterlimit="10" d="M364.7,42.4l32.5,16.3 M379.8,58.8l17.7,17.7
	 M364.8,34.9l32.8-16.1 M363.5,33.9l16.3-32.5 M379.9,18.8l17.7-17.7 M355.8,33.7L339.7,0.9 M354.8,35l-32.5-16.3 M339.7,18.6
	L321.9,0.8 M525,114.2l16.1-32.8 M526,115.4l32.5-16.3 M517.2,124.1L501,157 M516.1,122.9l-32.5,16.3 M521.5,134.7
	c-2.3,0.1-4.6-0.4-6.6-1.2 M520.2,103.8c2.4-0.1,4.8,0.3,6.9,1.2 M499.2,117.6l3.3,3.3 M539.5,117.6l3.3,3.3 M539.5,137.8l3.3,3.3
	 M545.7,144.2l3.3,3.3 M493,91.2l3.3,3.3 M499.2,97.5l3.3,3.3 M515.2,113.6l3.3,3.3 M523.4,121.6l3.3,3.3 M513.9,126.4l-30.8,30.8
	 M558.8,81.4l-30.4,30.4 M605.5,114.2l16.1-32.8 M606.6,115.4l32.5-16.3 M597.7,124.1L581.6,157 M596.6,122.9l-32.5,16.3
	 M602.1,134.7c-2.3,0.1-4.6-0.4-6.6-1.2 M600.7,103.8c2.4-0.1,4.8,0.3,6.9,1.2 M579.7,117.6l3.3,3.3 M620,117.6l3.3,3.3 M620,137.8
	l3.3,3.3 M626.2,144.2l3.3,3.3 M573.5,91.2l3.3,3.3 M579.7,97.5l3.3,3.3 M595.7,113.6l3.3,3.3 M603.9,121.6l3.3,3.3 M594.4,126.4
	l-30.8,30.8 M639.3,81.4L609,111.8 M527.8,216c-2.1,0.9-4.4,1.4-6.8,1.4c-2.3,0-4.6-0.5-6.6-1.3 M513.8,183.8c2.2-1,4.6-1.5,7.1-1.5
	c2.4,0,4.7,0.5,6.8,1.4 M515.9,195.9l-32.8-16.1 M517.2,194.8l-16.3-32.5 M524.8,194.9l16.1-32.8 M525.8,196.2l32.5-16.3
	 M540.9,179.8l17.7-17.7 M525.9,203.6l32.8,16.1 M524.6,204.6l16.3,32.5 M516.9,204.9l-16.1,32.8 M515.9,203.6l-32.5,16.3
	 M500.8,220l-17.7,17.7 M539.4,218.2l3.3,3.3 M545.7,224.5l3.3,3.3 M492.9,171.6l3.3,3.3 M499.2,177.9l3.3,3.3 M608.3,216
	c-2.1,0.9-4.4,1.4-6.8,1.4c-2.3,0-4.6-0.5-6.6-1.3 M594.4,183.8c2.2-1,4.6-1.5,7.1-1.5c2.4,0,4.7,0.5,6.8,1.4 M596.5,195.9
	l-32.8-16.1 M597.8,194.8l-16.3-32.5 M605.3,194.9l16.1-32.8 M606.4,196.2l32.5-16.3 M621.4,179.8l17.7-17.7 M606.5,203.6l32.8,16.1
	 M605.2,204.6l16.3,32.5 M597.5,204.9l-16.1,32.8 M596.4,203.6l-32.5,16.3 M581.3,220l-17.7,17.7 M620,218.2l3.3,3.3 M626.2,224.5
	l3.3,3.3 M573.5,171.6l3.3,3.3 M579.7,177.9l3.3,3.3 M616.8,36.4c-0.4-2.3-1.2-4.4-2.5-6.3 M586.2,40.8c0.3,2.4,1.2,4.6,2.5,6.5
	 M599.8,16.9l3.3,3.3 M599.8,57.2l3.3,3.3 M620,57.2l3.3,3.3 M626.4,63.5l3.3,3.3 M573.4,10.7l3.3,3.3 M579.8,16.9l3.3,3.3
	 M595.9,32.9l3.3,3.3 M603.8,41.1l3.3,3.3 M563.7,38.7h35.5 M603.8,38.7h35.5 M603.9,36.3l35.4-35.4 M615.6,18.6L633.2,1
	 M569.7,76.5l17.7-17.7 M563.7,76.5l35.4-35.4 M515.8,42.8L483,58.9 M517.1,43.8l-16.3,32.5 M525.8,34.9l32.8-16.1 M524.5,33.9
	l16.3-32.5 M536.4,39.3c0.1-2.3-0.4-4.6-1.2-6.6 M505.5,37.9c-0.1,2.4,0.3,4.8,1.2,6.9 M519.3,16.9l3.3,3.3 M519.3,57.2l3.3,3.3
	 M539.5,57.2l3.3,3.3 M545.8,63.5l3.3,3.3 M492.8,10.7l3.3,3.3 M499.2,16.9l3.3,3.3 M515.3,32.9l3.3,3.3 M523.3,41.1l3.3,3.3
	 M528,31.6l30.8-30.8 M483.1,76.5l30.4-30.4 M435.2,284.5l-32.8,16.1 M436.5,285.5L420.2,318 M445.2,276.6l32.8-16.1 M444,275.6
	l16.3-32.5 M455.8,281c0.1-2.3-0.4-4.6-1.2-6.6 M424.9,279.6c-0.1,2.4,0.3,4.8,1.2,6.9 M438.7,258.6l3.3,3.3 M438.7,298.9l3.3,3.3
	 M458.9,298.9l3.3,3.3 M465.2,305.1l3.3,3.3 M412.3,252.4l3.3,3.3 M418.6,258.6l3.3,3.3 M434.7,274.6l3.3,3.3 M442.7,282.8l3.3,3.3
	 M447.5,273.3l30.8-30.8 M402.5,318.2l30.3-30.4 M456.6,126.1c0.9-2.1,1.4-4.4,1.4-6.8c0-2.3-0.5-4.6-1.3-6.6 M424.3,112.2
	c-1,2.2-1.5,4.6-1.5,7.1c0,2.4,0.5,4.7,1.4,6.8 M436.4,114.3l-16.1-32.8 M435.4,115.5l-32.5-16.3 M435.4,123.1l-32.8,16.1
	 M436.7,124.1l-16.3,32.5 M420.3,139.2l-17.7,17.7 M444.2,124.2l16.1,32.8 M445.2,123l32.5,16.3 M445.4,115.2l32.8-16.1
	 M444.1,114.2l16.3-32.5 M460.5,99.1l17.7-17.7 M458.7,137.8l3.3,3.3 M465.1,144l3.3,3.3 M412.1,91.3l3.3,3.3 M418.5,97.5l3.3,3.3
	 M456.6,45.5c0.9-2.1,1.4-4.4,1.4-6.8c0-2.3-0.5-4.6-1.3-6.6 M424.3,31.6c-1,2.2-1.5,4.6-1.5,7.1c0,2.4,0.5,4.7,1.4,6.8 M436.4,33.7
	L420.3,0.9 M435.4,35l-32.5-16.3 M435.4,42.5l-32.8,16.1 M436.7,43.6l-16.3,32.5 M420.3,58.7l-17.7,17.7 M444.2,43.7l16.1,32.8
	 M445.2,42.4l32.5,16.3 M445.4,34.7l32.8-16.1 M444.1,33.7l16.3-32.5 M460.5,18.6l17.7-17.7 M458.7,57.2l3.3,3.3 M465.1,63.5
	l3.3,3.3 M412.1,10.7l3.3,3.3 M418.5,16.9l3.3,3.3 M537.1,287.2c0.9-2.1,1.4-4.4,1.4-6.8c0-2.3-0.5-4.6-1.3-6.6 M504.8,273.3
	c-1,2.2-1.5,4.6-1.5,7.1c0,2.4,0.5,4.7,1.4,6.8 M516.9,275.4l-16.1-32.8 M515.9,276.7l-32.5-16.3 M516,284.2l-32.8,16.1
	 M517.2,285.3L501,317.8 M500.8,300.4l-17.7,17.7 M524.7,285.4l16.1,32.8 M525.7,284.1l32.5,16.3 M525.9,276.4l32.8-16.1
	 M524.7,275.3l16.3-32.5 M541.1,260.3l17.7-17.7 M539.3,298.9l3.3,3.3 M545.6,305.1l3.3,3.3 M492.6,252.4l3.3,3.3 M499,258.6
	l3.3,3.3 M594.9,296.7c2,0.8,4.3,1.3,6.6,1.3c2.3,0,4.6-0.5,6.6-1.3 M617.7,287.2c0.9-2.1,1.4-4.4,1.4-6.8c0-2.3-0.5-4.6-1.3-6.6
	 M608.7,264.4c-2.2-1-4.6-1.5-7.2-1.5c-2.6,0-5,0.5-7.2,1.5 M585.4,273.3c-1,2.2-1.5,4.6-1.5,7.1c0,2.4,0.5,4.7,1.4,6.8
	 M597.5,275.4l-16.1-32.8 M596.5,276.7l-32.5-16.3 M581.4,260.3l-17.7-17.7 M596.5,284.2l-32.8,16.1 M597.8,285.3l-16.3,32.5
	 M581.4,300.4l-17.7,17.7 M605.3,285.4l16.1,32.8 M606.3,284.1l32.5,16.3 M621.4,300.5l17.7,17.7 M606.5,276.4l32.8-16.1
	 M605.2,275.3l16.3-32.5 M621.6,260.3l17.7-17.7 M375.1,278c-0.4-2.3-1.2-4.4-2.5-6.3 M344.5,282.5c0.3,2.4,1.2,4.6,2.5,6.5
	 M358.1,258.6l3.3,3.3 M358.1,298.9l3.3,3.3 M378.3,298.9l3.3,3.3 M384.7,305.1l3.3,3.3 M331.7,252.4l3.3,3.3 M338.1,258.6l3.3,3.3
	 M354.2,274.6l3.3,3.3 M362.1,282.8l3.3,3.3 M322,280.4h35.5 M362.1,280.4h35.5 M362.2,278l35.4-35.4 M373.9,260.3l17.7-17.7
	 M328,318.2l17.7-17.7 M322,318.2l35.4-35.4"/>
<path fill="none" stroke="#D1B387" stroke-width="1.028" stroke-miterlimit="10" d="M286.1,216c-2.1,0.9-4.4,1.4-6.8,1.4
	c-2.3,0-4.6-0.5-6.6-1.3 M272.1,183.8c2.2-1,4.6-1.5,7.1-1.5c2.4,0,4.7,0.5,6.8,1.4 M274.2,195.9l-32.8-16.1 M275.5,194.8
	l-16.3-32.5 M283.1,194.9l16.1-32.8 M284.1,196.2l32.5-16.3 M299.2,179.8l17.7-17.7 M284.2,203.6l32.8,16.1 M282.9,204.6l16.3,32.5
	 M275.2,204.9l-16.1,32.8 M274.2,203.6l-32.5,16.3 M259.1,220l-17.7,17.7 M297.7,218.2l3.3,3.3 M304,224.5l3.3,3.3 M251.2,171.6
	l3.3,3.3 M257.5,177.9l3.3,3.3 M294.5,36.4c-0.4-2.3-1.2-4.4-2.5-6.3 M263.9,40.8c0.3,2.4,1.2,4.6,2.5,6.5 M277.6,16.9l3.3,3.3
	 M277.6,57.2l3.3,3.3 M297.8,57.2l3.3,3.3 M304.1,63.5l3.3,3.3 M251.2,10.7l3.3,3.3 M257.5,16.9l3.3,3.3 M273.6,32.9l3.3,3.3
	 M281.6,41.1l3.3,3.3 M241.4,38.7h35.5 M281.6,38.7h35.5 M281.7,36.3l35.4-35.4 M293.3,18.6L311,1 M247.4,76.5l17.7-17.7
	 M241.4,76.5l35.4-35.4 M193.6,42.8l-32.8,16.1 M194.8,43.8l-16.3,32.5 M203.5,34.9l32.8-16.1 M202.3,33.9l16.3-32.5 M214.1,39.3
	c0.1-2.3-0.4-4.6-1.2-6.6 M183.2,37.9c-0.1,2.4,0.3,4.8,1.2,6.9 M197,16.9l3.3,3.3 M197,57.2l3.3,3.3 M217.2,57.2l3.3,3.3
	 M223.6,63.5l3.3,3.3 M170.6,10.7l3.3,3.3 M176.9,16.9l3.3,3.3 M193,32.9l3.3,3.3 M201,41.1l3.3,3.3 M205.8,31.6l30.8-30.8
	 M160.8,76.5l30.4-30.4 M113,284.5l-32.8,16.1 M114.3,285.5L98,318 M123,276.6l32.8-16.1 M121.7,275.6L138,243 M133.6,281
	c0.1-2.3-0.4-4.6-1.2-6.6 M102.7,279.6c-0.1,2.4,0.3,4.8,1.2,6.9 M116.5,258.6l3.3,3.3 M116.5,298.9l3.3,3.3 M136.6,298.9l3.3,3.3
	 M143,305.1l3.3,3.3 M90,252.4l3.3,3.3 M96.4,258.6l3.3,3.3 M112.5,274.6l3.3,3.3 M120.4,282.8l3.3,3.3 M125.2,273.3l30.8-30.8
	 M80.3,318.2l30.4-30.4 M134.3,126.1c0.9-2.1,1.4-4.4,1.4-6.8c0-2.3-0.5-4.6-1.3-6.6 M102.1,112.2c-1,2.2-1.5,4.6-1.5,7.1
	c0,2.4,0.5,4.7,1.4,6.8 M114.2,114.3L98,81.4 M113.1,115.5L80.6,99.3 M113.2,123.1l-32.8,16.1 M114.5,124.1l-16.3,32.5 M98.1,139.2
	l-17.7,17.7 M121.9,124.2l16.1,32.8 M123,123l32.5,16.3 M123.2,115.2L156,99.1 M121.9,114.2l16.3-32.5 M138.3,99.1L156,81.4
	 M136.5,137.8l3.3,3.3 M142.8,144l3.3,3.3 M89.9,91.3l3.3,3.3 M96.2,97.5l3.3,3.3 M134.3,45.5c0.9-2.1,1.4-4.4,1.4-6.8
	c0-2.3-0.5-4.6-1.3-6.6 M102.1,31.6c-1,2.2-1.5,4.6-1.5,7.1c0,2.4,0.5,4.7,1.4,6.8 M114.2,33.7L98,0.9 M113.1,35L80.6,18.7
	 M113.2,42.5L80.4,58.7 M114.5,43.6L98.2,76.1 M98.1,58.7L80.3,76.4 M121.9,43.7L138,76.5 M123,42.4l32.5,16.3 M123.2,34.7L156,18.6
	 M121.9,33.7l16.3-32.5 M138.3,18.6L156,0.8 M136.5,57.2l3.3,3.3 M142.8,63.5l3.3,3.3 M89.9,10.7l3.3,3.3 M96.2,16.9l3.3,3.3
	 M214.9,287.2c0.9-2.1,1.4-4.4,1.4-6.8c0-2.3-0.5-4.6-1.3-6.6 M182.6,273.3c-1,2.2-1.5,4.6-1.5,7.1c0,2.4,0.5,4.7,1.4,6.8
	 M194.7,275.4l-16.1-32.8 M193.7,276.7l-32.5-16.3 M193.7,284.2l-32.8,16.1 M195,285.3l-16.3,32.5 M178.6,300.4l-17.7,17.7
	 M202.5,285.4l16.1,32.8 M203.5,284.1l32.5,16.3 M203.7,276.4l32.8-16.1 M202.4,275.3l16.3-32.5 M218.8,260.3l17.7-17.7 M217,298.9
	l3.3,3.3 M223.4,305.1l3.3,3.3 M170.4,252.4l3.3,3.3 M176.7,258.6l3.3,3.3 M272.6,296.7c2,0.8,4.3,1.3,6.6,1.3
	c2.3,0,4.6-0.5,6.6-1.3 M295.4,287.2c0.9-2.1,1.4-4.4,1.4-6.8c0-2.3-0.5-4.6-1.3-6.6 M286.4,264.4c-2.2-1-4.6-1.5-7.2-1.5
	c-2.6,0-5,0.5-7.2,1.5 M263.2,273.3c-1,2.2-1.5,4.6-1.5,7.1c0,2.4,0.5,4.7,1.4,6.8 M275.3,275.4l-16.1-32.8 M274.2,276.7l-32.5-16.3
	 M259.1,260.3l-17.7-17.7 M274.3,284.2l-32.8,16.1 M275.6,285.3l-16.3,32.5 M259.2,300.4l-17.7,17.7 M283,285.4l16.1,32.8
	 M284,284.1l32.5,16.3 M299.1,300.5l17.7,17.7 M284.3,276.4l32.8-16.1 M283,275.3l16.3-32.5 M299.4,260.3l17.7-17.7 M52.8,278
	c-0.4-2.3-1.2-4.4-2.5-6.3 M22.2,282.5c0.3,2.4,1.2,4.6,2.5,6.5 M35.9,258.6l3.3,3.3 M35.9,298.9l3.3,3.3 M56.1,298.9l3.3,3.3
	 M62.4,305.1l3.3,3.3 M9.5,252.4l3.3,3.3 M15.8,258.6l3.3,3.3 M31.9,274.6l3.3,3.3 M39.9,282.8l3.3,3.3 M-0.3,280.4h35.5
	 M39.9,280.4h35.5 M40,278l35.4-35.4 M51.6,260.3l17.7-17.7 M5.8,318.2l17.7-17.7 M-0.3,318.2l35.4-35.4 M436.3,205l-16.1,32.8
	 M435.3,203.7L402.8,220 M444.2,195l16.1-32.8 M445.2,196.2l32.5-16.3 M439.8,184.4c2.3-0.1,4.6,0.4,6.6,1.2 M441.2,215.3
	c-2.4,0.1-4.8-0.3-6.9-1.2 M462.2,201.5l-3.3-3.3 M421.9,201.5l-3.3-3.3 M421.9,181.3l-3.3-3.3 M415.7,175l-3.3-3.3 M468.4,227.9
	l-3.3-3.3 M462.2,221.6l-3.3-3.3 M446.2,205.5l-3.3-3.3 M438,197.5l-3.3-3.3 M447.5,192.7l30.8-30.8 M402.6,237.7l30.4-30.4
	 M355.8,205l-16.1,32.8 M354.7,203.7L322.2,220 M363.6,195l16.1-32.8 M364.6,196.2l32.5-16.3 M359.2,184.4c2.3-0.1,4.6,0.4,6.6,1.2
	 M360.6,215.3c-2.4,0.1-4.8-0.3-6.9-1.2 M381.6,201.5l-3.3-3.3 M341.3,201.5l-3.3-3.3 M341.3,181.3L338,178 M335.1,175l-3.3-3.3
	 M387.8,227.9l-3.3-3.3 M381.6,221.6l-3.3-3.3 M365.6,205.5l-3.3-3.3 M357.4,197.5l-3.3-3.3 M366.9,192.7l30.8-30.8 M322,237.7
	l30.4-30.4 M353,103.1c2.1-0.9,4.4-1.4,6.8-1.4c2.3,0,4.6,0.5,6.6,1.3 M366.9,135.4c-2.2,1-4.6,1.5-7.1,1.5c-2.4,0-4.7-0.5-6.8-1.4
	 M364.8,123.3l32.8,16.1 M363.5,124.3l16.3,32.5 M356,124.2l-16.1,32.8 M354.9,123l-32.5,16.3 M339.9,139.4l-17.7,17.7 M354.8,115.5
	L322,99.4 M356.1,114.5l-16.3-32.5 M363.8,114.3L380,81.4 M364.9,115.5l32.5-16.3 M380,99.1l17.7-17.7 M341.3,100.9l-3.3-3.3
	 M335.1,94.6l-3.3-3.3 M387.8,147.6l-3.3-3.3 M381.6,141.2l-3.3-3.3 M376.1,45.3c0.8-2,1.3-4.3,1.3-6.6c0-2.4-0.5-4.6-1.3-6.6
	 M366.6,22.5c-2.1-0.9-4.4-1.4-6.8-1.4c-2.3,0-4.6,0.5-6.6,1.3 M343.8,31.5c-1,2.2-1.5,4.6-1.5,7.2c0,2.6,0.5,5,1.5,7.2 M352.7,54.8
	c2.2,1,4.6,1.5,7.1,1.5c2.4,0,4.7-0.5,6.8-1.4 M354.8,42.7L322,58.8 M356.1,43.7l-16.3,32.5 M339.7,58.8L322,76.5 M363.6,43.7
	l16.1,32.8"/>
<path fill="none" stroke="#D1B387" stroke-width="1.028" stroke-miterlimit="10" d="M458.9,621.2l3.3,3.3 M465.2,627.4l3.3,3.3
	 M412.3,574.7l3.3,3.3 M418.6,580.9l3.3,3.3 M434.7,596.9l3.3,3.3 M442.7,605.1l3.3,3.3 M447.5,595.6l30.8-30.8 M402.5,640.5
	l30.4-30.4 M456.6,448.4c0.9-2.1,1.4-4.4,1.4-6.8c0-2.3-0.5-4.6-1.3-6.6 M424.3,434.4c-1,2.2-1.5,4.6-1.5,7.1c0,2.4,0.5,4.7,1.4,6.8
	 M436.4,436.5l-16.1-32.8 M435.4,437.8l-32.5-16.3 M435.4,445.4l-32.8,16.1 M436.7,446.4l-16.3,32.5 M420.3,461.5l-17.7,17.7
	 M444.2,446.5l16.1,32.8 M445.2,445.2l32.5,16.3 M445.4,437.5l32.8-16.1 M444.1,436.5l16.3-32.5 M460.5,421.4l17.7-17.7 M458.7,460
	l3.3,3.3 M465.1,466.3l3.3,3.3 M412.1,413.5l3.3,3.3 M418.5,419.8l3.3,3.3 M456.6,367.8c0.9-2.1,1.4-4.4,1.4-6.8
	c0-2.3-0.5-4.6-1.3-6.6 M424.3,353.9c-1,2.2-1.5,4.6-1.5,7.1c0,2.4,0.5,4.7,1.4,6.8 M436.4,356l-16.1-32.8 M435.4,357.2L402.9,341
	 M435.4,364.8l-32.8,16.1 M436.7,365.8l-16.3,32.5 M420.3,380.9l-17.7,17.7 M444.2,365.9l16.1,32.8 M445.2,364.7l32.5,16.3
	 M445.4,356.9l32.8-16.1 M444.1,355.9l16.3-32.5 M460.5,340.8l17.7-17.7 M458.7,379.5l3.3,3.3 M465.1,385.7l3.3,3.3 M412.1,333
	l3.3,3.3 M418.5,339.2l3.3,3.3 M537.1,609.5c0.9-2.1,1.4-4.4,1.4-6.8c0-2.3-0.5-4.6-1.3-6.6 M504.8,595.6c-1,2.2-1.5,4.6-1.5,7.1
	c0,2.4,0.5,4.7,1.4,6.8 M516.9,597.7l-16.1-32.8 M515.9,598.9l-32.5-16.3 M516,606.5l-32.8,16.1 M517.2,607.5L501,640.1
	 M500.8,622.6l-17.7,17.7 M524.7,607.6l16.1,32.8 M525.7,606.4l32.5,16.3 M525.9,598.6l32.8-16.1 M524.7,597.6l16.3-32.5
	 M541.1,582.5l17.7-17.7 M539.3,621.2l3.3,3.3 M545.6,627.4l3.3,3.3 M492.6,574.7l3.3,3.3 M499,580.9l3.3,3.3 M594.9,618.9
	c2,0.8,4.3,1.3,6.6,1.3c2.3,0,4.6-0.5,6.6-1.3 M617.7,609.5c0.9-2.1,1.4-4.4,1.4-6.8c0-2.3-0.5-4.6-1.3-6.6 M608.7,586.6
	c-2.2-1-4.6-1.5-7.2-1.5c-2.6,0-5,0.5-7.2,1.5 M585.4,595.6c-1,2.2-1.5,4.6-1.5,7.1c0,2.4,0.5,4.7,1.4,6.8 M597.5,597.7l-16.1-32.8
	 M596.5,598.9l-32.5-16.3 M581.4,582.5l-17.7-17.7 M596.5,606.5l-32.8,16.1 M597.8,607.5l-16.3,32.5 M581.4,622.6l-17.7,17.7
	 M605.3,607.6l16.1,32.8 M606.3,606.4l32.5,16.3 M621.4,622.8l17.7,17.7 M606.5,598.6l32.8-16.1 M605.2,597.6l16.3-32.5
	 M621.6,582.5l17.7-17.7 M375.1,600.3c-0.4-2.3-1.2-4.4-2.5-6.3 M344.5,604.8c0.3,2.4,1.2,4.6,2.5,6.5 M358.1,580.9l3.3,3.3
	 M358.1,621.2l3.3,3.3 M378.3,621.2l3.3,3.3 M384.7,627.4l3.3,3.3 M331.7,574.7l3.3,3.3 M338.1,580.9l3.3,3.3 M354.2,596.9l3.3,3.3
	 M362.1,605.1l3.3,3.3 M322,602.7h35.5 M362.1,602.7h35.5 M362.2,600.2l35.4-35.4 M373.9,582.6l17.7-17.7 M328,640.5l17.7-17.7
	 M322,640.5l35.4-35.4 M114.1,205L98,237.8 M113.1,203.7L80.5,220 M122,195l16.1-32.8 M123,196.2l32.5-16.3 M117.6,184.4
	c2.3-0.1,4.6,0.4,6.6,1.2 M118.9,215.3c-2.4,0.1-4.8-0.3-6.9-1.2 M139.9,201.5l-3.3-3.3 M99.6,201.5l-3.3-3.3 M99.6,181.3l-3.3-3.3
	 M93.4,175l-3.3-3.3 M146.2,227.9l-3.3-3.3 M139.9,221.6l-3.3-3.3 M123.9,205.5l-3.3-3.3 M115.8,197.5l-3.3-3.3 M125.3,192.7
	L156,162 M80.3,237.7l30.4-30.4 M33.5,205l-16.1,32.8 M32.5,203.7L0,220 M41.4,195l16.1-32.8 M42.4,196.2L74.9,180 M37,184.4
	c2.3-0.1,4.6,0.4,6.6,1.2 M38.4,215.3c-2.4,0.1-4.8-0.3-6.9-1.2 M59.3,201.5l-3.3-3.3 M19.1,201.5l-3.3-3.3 M19.1,181.3l-3.3-3.3
	 M12.8,175l-3.3-3.3 M65.6,227.9l-3.3-3.3 M59.3,221.6l-3.3-3.3 M43.3,205.5l-3.3-3.3 M35.2,197.5l-3.3-3.3 M44.7,192.7L75.4,162
	 M-0.3,237.7l30.4-30.4 M30.7,103.1c2.1-0.9,4.4-1.4,6.8-1.4c2.3,0,4.6,0.5,6.6,1.3 M44.7,135.4c-2.2,1-4.6,1.5-7.1,1.5
	c-2.4,0-4.7-0.5-6.8-1.4 M42.6,123.3l32.8,16.1 M41.3,124.3l16.3,32.5 M33.7,124.2l-16.1,32.8 M32.7,123L0.2,139.2 M17.6,139.4
	l-17.7,17.7 M32.6,115.5L-0.2,99.4 M33.9,114.5L17.6,81.9 M41.6,114.3l16.1-32.8 M42.6,115.5l32.5-16.3 M57.7,99.1l17.7-17.7
	 M19.1,100.9l-3.3-3.3 M12.8,94.6l-3.3-3.3 M65.6,147.6l-3.3-3.3 M59.3,141.2l-3.3-3.3 M53.8,45.3c0.8-2,1.3-4.3,1.3-6.6
	c0-2.4-0.5-4.6-1.3-6.6 M44.4,22.5c-2.1-0.9-4.4-1.4-6.8-1.4c-2.3,0-4.6,0.5-6.6,1.3 M21.5,31.5c-1,2.2-1.5,4.6-1.5,7.2
	c0,2.6,0.5,5,1.5,7.2 M30.5,54.8c2.2,1,4.6,1.5,7.1,1.5c2.4,0,4.7-0.5,6.8-1.4 M32.6,42.7L-0.3,58.8 M33.8,43.7L17.5,76.2
	 M17.4,58.8L-0.3,76.5 M41.4,43.7l16.1,32.8 M42.4,42.4L75,58.7 M57.5,58.8l17.7,17.7 M42.5,34.9l32.8-16.1 M41.3,33.9L57.5,1.4
	 M57.7,18.8L75.4,1.1 M33.5,33.7L17.4,0.9 M32.5,35L0,18.7 M17.4,18.6L-0.3,0.8 M202.8,114.2l16.1-32.8 M203.8,115.4l32.5-16.3
	 M194.9,124.1L178.8,157 M193.9,122.9l-32.5,16.3 M199.3,134.7c-2.3,0.1-4.6-0.4-6.6-1.2 M197.9,103.8c2.4-0.1,4.8,0.3,6.9,1.2
	 M177,117.6l3.3,3.3 M217.2,117.6l3.3,3.3 M217.2,137.8l3.3,3.3 M223.5,144.2l3.3,3.3 M170.7,91.2l3.3,3.3 M177,97.5l3.3,3.3
	 M192.9,113.6l3.3,3.3 M201.1,121.6l3.3,3.3 M191.6,126.4l-30.8,30.8 M236.5,81.4l-30.4,30.4 M283.3,114.2l16.1-32.8 M284.3,115.4
	l32.5-16.3 M275.4,124.1L259.3,157 M274.4,122.9l-32.5,16.3 M279.8,134.7c-2.3,0.1-4.6-0.4-6.6-1.2 M278.4,103.8
	c2.4-0.1,4.8,0.3,6.9,1.2 M257.5,117.6l3.3,3.3 M297.7,117.6l3.3,3.3 M297.7,137.8l3.3,3.3 M304,144.2l3.3,3.3 M251.2,91.2l3.3,3.3
	 M257.5,97.5l3.3,3.3 M273.5,113.6l3.3,3.3 M281.6,121.6l3.3,3.3 M272.1,126.4l-30.8,30.8 M317.1,81.4l-30.4,30.4 M205.5,216
	c-2.1,0.9-4.4,1.4-6.8,1.4c-2.3,0-4.6-0.5-6.6-1.3 M191.6,183.8c2.2-1,4.6-1.5,7.1-1.5c2.4,0,4.7,0.5,6.8,1.4 M193.7,195.9
	l-32.8-16.1 M194.9,194.8l-16.3-32.5 M202.5,194.9l16.1-32.8 M203.5,196.2l32.5-16.3 M218.6,179.8l17.7-17.7 M203.6,203.6l32.8,16.1
	 M202.4,204.6l16.3,32.5 M194.7,204.9l-16.1,32.8 M193.6,203.6l-32.5,16.3 M178.5,220l-17.7,17.7 M217.2,218.2l3.3,3.3 M223.4,224.5
	l3.3,3.3 M170.7,171.6l3.3,3.3 M176.9,177.9l3.3,3.3"/>
<path fill="none" stroke="#D1B387" stroke-width="1.028" stroke-miterlimit="10" d="M272.6,618.9c2,0.8,4.3,1.3,6.6,1.3
	c2.3,0,4.6-0.5,6.6-1.3 M295.4,609.5c0.9-2.1,1.4-4.4,1.4-6.8c0-2.3-0.5-4.6-1.3-6.6 M286.4,586.6c-2.2-1-4.6-1.5-7.2-1.5
	c-2.6,0-5,0.5-7.2,1.5 M263.2,595.6c-1,2.2-1.5,4.6-1.5,7.1c0,2.4,0.5,4.7,1.4,6.8 M275.3,597.7l-16.1-32.8 M274.2,598.9l-32.5-16.3
	 M259.1,582.5l-17.7-17.7 M274.3,606.5l-32.8,16.1 M275.6,607.5l-16.3,32.5 M259.2,622.6l-17.7,17.7 M283,607.6l16.1,32.8
	 M284,606.4l32.5,16.3 M299.1,622.8l17.7,17.7 M284.3,598.6l32.8-16.1 M283,597.6l16.3-32.5 M299.4,582.5l17.7-17.7 M52.8,600.3
	c-0.4-2.3-1.2-4.4-2.5-6.3 M22.2,604.8c0.3,2.4,1.2,4.6,2.5,6.5 M35.9,580.9l3.3,3.3 M35.9,621.2l3.3,3.3 M56.1,621.2l3.3,3.3
	 M62.4,627.4l3.3,3.3 M9.5,574.7l3.3,3.3 M15.8,580.9l3.3,3.3 M31.9,596.9l3.3,3.3 M39.9,605.1l3.3,3.3 M-0.3,602.7h35.5
	 M39.9,602.7h35.5 M40,600.2l35.4-35.4 M51.6,582.6l17.7-17.7 M5.8,640.5l17.7-17.7 M-0.3,640.5l35.4-35.4 M436.3,527.2L420.2,560
	 M435.3,525.9l-32.5,16.3 M444.2,517.2l16.1-32.8 M445.2,518.5l32.5-16.3 M439.8,506.6c2.3-0.1,4.6,0.4,6.6,1.2 M441.2,537.6
	c-2.4,0.1-4.8-0.3-6.9-1.2 M462.2,523.8l-3.3-3.3 M421.9,523.8l-3.3-3.3 M421.9,503.6l-3.3-3.3 M415.7,497.2l-3.3-3.3 M468.4,550.2
	l-3.3-3.3 M462.2,543.8l-3.3-3.3 M446.2,527.7l-3.3-3.3 M438,519.8l-3.3-3.3 M447.5,515l30.8-30.8 M402.6,559.9l30.4-30.4
	 M355.8,527.2L339.6,560 M354.7,525.9l-32.5,16.3 M363.6,517.2l16.1-32.8 M364.6,518.5l32.5-16.3 M359.2,506.6
	c2.3-0.1,4.6,0.4,6.6,1.2 M360.6,537.6c-2.4,0.1-4.8-0.3-6.9-1.2 M381.6,523.8l-3.3-3.3 M341.3,523.8l-3.3-3.3 M341.3,503.6
	l-3.3-3.3 M335.1,497.2l-3.3-3.3 M387.8,550.2l-3.3-3.3 M381.6,543.8l-3.3-3.3 M365.6,527.7l-3.3-3.3 M357.4,519.8l-3.3-3.3
	 M366.9,515l30.8-30.8 M322,559.9l30.4-30.4 M353,425.3c2.1-0.9,4.4-1.4,6.8-1.4c2.3,0,4.6,0.5,6.6,1.3 M366.9,457.6
	c-2.2,1-4.6,1.5-7.1,1.5c-2.4,0-4.7-0.5-6.8-1.4 M364.8,445.5l32.8,16.1 M363.5,446.5l16.3,32.5 M356,446.5l-16.1,32.8 M354.9,445.2
	l-32.5,16.3 M339.9,461.6l-17.7,17.7 M354.8,437.8L322,421.6 M356.1,436.7l-16.3-32.5 M363.8,436.5l16.1-32.8 M364.9,437.8
	l32.5-16.3 M380,421.4l17.7-17.7 M341.3,423.2l-3.3-3.3 M335.1,416.9l-3.3-3.3 M387.8,469.8l-3.3-3.3 M381.6,463.5l-3.3-3.3
	 M376.1,367.6c0.8-2,1.3-4.3,1.3-6.6c0-2.4-0.5-4.6-1.3-6.6 M366.6,344.8c-2.1-0.9-4.4-1.4-6.8-1.4c-2.3,0-4.6,0.5-6.6,1.3
	 M343.8,353.8c-1,2.2-1.5,4.6-1.5,7.2c0,2.6,0.5,5,1.5,7.2 M352.7,377c2.2,1,4.6,1.5,7.1,1.5c2.4,0,4.7-0.5,6.8-1.4 M354.8,365
	L322,381.1 M356.1,366l-16.3,32.5 M339.7,381.1L322,398.8 M363.6,365.9l16.1,32.8 M364.7,364.7l32.5,16.3 M379.8,381.1l17.7,17.7
	 M364.8,357.2l32.8-16.1 M363.5,356.2l16.3-32.5 M379.9,341.1l17.7-17.7 M355.8,356l-16.1-32.8 M354.8,357.2l-32.5-16.3
	 M339.7,340.8l-17.7-17.7 M525,436.4l16.1-32.8 M526,437.7l32.5-16.3 M517.2,446.4L501,479.2 M516.1,445.1l-32.5,16.3 M521.5,457
	c-2.3,0.1-4.6-0.4-6.6-1.2 M520.2,426.1c2.4-0.1,4.8,0.3,6.9,1.2 M499.2,439.9l3.3,3.3 M539.5,439.9l3.3,3.3 M539.5,460.1l3.3,3.3
	 M545.7,466.4l3.3,3.3 M493,413.5l3.3,3.3 M499.2,419.8l3.3,3.3 M515.2,435.9l3.3,3.3 M523.4,443.9l3.3,3.3 M513.9,448.6l-30.8,30.8
	 M558.8,403.7l-30.4,30.4 M605.5,436.4l16.1-32.8 M606.6,437.7l32.5-16.3 M597.7,446.4l-16.1,32.8 M596.6,445.1l-32.5,16.3
	 M602.1,457c-2.3,0.1-4.6-0.4-6.6-1.2 M600.7,426.1c2.4-0.1,4.8,0.3,6.9,1.2 M579.7,439.9l3.3,3.3 M620,439.9l3.3,3.3 M620,460.1
	l3.3,3.3 M626.2,466.4l3.3,3.3 M573.5,413.5l3.3,3.3 M579.7,419.8l3.3,3.3 M595.7,435.9l3.3,3.3 M603.9,443.9l3.3,3.3 M594.4,448.6
	l-30.8,30.8 M639.3,403.7L609,434.1 M527.8,538.3c-2.1,0.9-4.4,1.4-6.8,1.4c-2.3,0-4.6-0.5-6.6-1.3 M513.8,506
	c2.2-1,4.6-1.5,7.1-1.5c2.4,0,4.7,0.5,6.8,1.4 M515.9,518.1L483.1,502 M517.2,517.1l-16.3-32.5 M524.8,517.1l16.1-32.8 M525.8,518.4
	l32.5-16.3 M540.9,502l17.7-17.7 M525.9,525.9l32.8,16.1 M524.6,526.9l16.3,32.5 M516.9,527.1l-16.1,32.8 M515.9,525.8l-32.5,16.3
	 M500.8,542.3L483.1,560 M539.4,540.4l3.3,3.3 M545.7,546.8l3.3,3.3 M492.9,493.8l3.3,3.3 M499.2,500.2l3.3,3.3 M608.3,538.3
	c-2.1,0.9-4.4,1.4-6.8,1.4c-2.3,0-4.6-0.5-6.6-1.3 M594.4,506c2.2-1,4.6-1.5,7.1-1.5c2.4,0,4.7,0.5,6.8,1.4 M596.5,518.1L563.7,502
	 M597.8,517.1l-16.3-32.5 M605.3,517.1l16.1-32.8 M606.4,518.4l32.5-16.3 M621.4,502l17.7-17.7 M606.5,525.9l32.8,16.1 M605.2,526.9
	l16.3,32.5 M597.5,527.1l-16.1,32.8 M596.4,525.8l-32.5,16.3 M581.3,542.3L563.6,560 M620,540.4l3.3,3.3 M626.2,546.8l3.3,3.3
	 M573.5,493.8l3.3,3.3 M579.7,500.2l3.3,3.3 M616.8,358.6c-0.4-2.3-1.2-4.4-2.5-6.3 M586.2,363.1c0.3,2.4,1.2,4.6,2.5,6.5
	 M599.8,339.2l3.3,3.3 M599.8,379.5l3.3,3.3 M620,379.5l3.3,3.3 M626.4,385.7l3.3,3.3 M573.4,333l3.3,3.3 M579.8,339.2l3.3,3.3
	 M595.9,355.2l3.3,3.3 M603.8,363.4l3.3,3.3 M563.7,361h35.5 M603.8,361h35.5 M603.9,358.5l35.4-35.4 M615.6,340.9l17.7-17.7
	 M569.7,398.8l17.7-17.7 M563.7,398.8l35.4-35.4 M515.8,365L483,381.1 M517.1,366.1l-16.3,32.5 M525.8,357.2l32.8-16.1 M524.5,356.1
	l16.3-32.5 M536.4,361.5c0.1-2.3-0.4-4.6-1.2-6.6 M505.5,360.2c-0.1,2.4,0.3,4.8,1.2,6.9 M519.3,339.2l3.3,3.3 M519.3,379.5l3.3,3.3
	 M539.5,379.5l3.3,3.3 M545.8,385.7l3.3,3.3 M492.8,333l3.3,3.3 M499.2,339.2l3.3,3.3 M515.3,355.2l3.3,3.3 M523.3,363.4l3.3,3.3
	 M528,353.9l30.8-30.8 M483.1,398.8l30.4-30.4 M435.2,606.7l-32.8,16.1 M436.5,607.7l-16.3,32.5 M445.2,598.9l32.8-16.1 M444,597.8
	l16.3-32.5 M455.8,603.2c0.1-2.3-0.4-4.6-1.2-6.6 M424.9,601.9c-0.1,2.4,0.3,4.8,1.2,6.9 M438.7,580.9l3.3,3.3 M438.7,621.2l3.3,3.3
	"/>
<path fill="none" stroke="#D1B387" stroke-width="1.028" stroke-miterlimit="10" d="M19.1,503.6l-3.3-3.3 M12.8,497.2l-3.3-3.3
	 M65.6,550.2l-3.3-3.3 M59.3,543.8l-3.3-3.3 M43.3,527.7l-3.3-3.3 M35.2,519.8l-3.3-3.3 M44.7,515l30.8-30.8 M-0.3,559.9l30.3-30.4
	 M30.7,425.3c2.1-0.9,4.4-1.4,6.8-1.4c2.3,0,4.6,0.5,6.6,1.3 M44.7,457.6c-2.2,1-4.6,1.5-7.1,1.5c-2.4,0-4.7-0.5-6.8-1.4
	 M42.6,445.5l32.8,16.1 M41.3,446.5l16.3,32.5 M33.7,446.5l-16.1,32.8 M32.7,445.2L0.2,461.5 M17.6,461.6l-17.7,17.7 M32.6,437.8
	l-32.8-16.1 M33.9,436.7l-16.3-32.5 M41.6,436.5l16.1-32.8 M42.6,437.8l32.5-16.3 M57.7,421.4l17.7-17.7 M19.1,423.2l-3.3-3.3
	 M12.8,416.9l-3.3-3.3 M65.6,469.8l-3.3-3.3 M59.3,463.5l-3.3-3.3 M53.8,367.6c0.8-2,1.3-4.3,1.3-6.6c0-2.4-0.5-4.6-1.3-6.6
	 M44.4,344.8c-2.1-0.9-4.4-1.4-6.8-1.4c-2.3,0-4.6,0.5-6.6,1.3 M21.5,353.8c-1,2.2-1.5,4.6-1.5,7.2c0,2.6,0.5,5,1.5,7.2 M30.5,377
	c2.2,1,4.6,1.5,7.1,1.5c2.4,0,4.7-0.5,6.8-1.4 M32.6,365l-32.8,16.1 M33.8,366l-16.3,32.5 M17.4,381.1l-17.7,17.7 M41.4,365.9
	l16.1,32.8 M42.4,364.7L75,380.9 M57.5,381.1l17.7,17.7 M42.5,357.2l32.8-16.1 M41.3,356.2l16.3-32.5 M57.7,341.1l17.7-17.7
	 M33.5,356l-16.1-32.8 M32.5,357.2L0,340.9 M17.4,340.8l-17.7-17.7 M202.8,436.4l16.1-32.8 M203.8,437.7l32.5-16.3 M194.9,446.4
	l-16.1,32.8 M193.9,445.1l-32.5,16.3 M199.3,457c-2.3,0.1-4.6-0.4-6.6-1.2 M197.9,426.1c2.4-0.1,4.8,0.3,6.9,1.2 M177,439.9l3.3,3.3
	 M217.2,439.9l3.3,3.3 M217.2,460.1l3.3,3.3 M223.5,466.4l3.3,3.3 M170.7,413.5l3.3,3.3 M177,419.8l3.3,3.3 M192.9,435.9l3.3,3.3
	 M201.1,443.9l3.3,3.3 M191.6,448.6l-30.8,30.8 M236.5,403.7l-30.4,30.4 M283.3,436.4l16.1-32.8 M284.3,437.7l32.5-16.3
	 M275.4,446.4l-16.1,32.8 M274.4,445.1l-32.5,16.3 M279.8,457c-2.3,0.1-4.6-0.4-6.6-1.2 M278.4,426.1c2.4-0.1,4.8,0.3,6.9,1.2
	 M257.5,439.9l3.3,3.3 M297.7,439.9l3.3,3.3 M297.7,460.1l3.3,3.3 M304,466.4l3.3,3.3 M251.2,413.5l3.3,3.3 M257.5,419.8l3.3,3.3
	 M273.5,435.9l3.3,3.3 M281.6,443.9l3.3,3.3 M272.1,448.6l-30.8,30.8 M317.1,403.7l-30.4,30.4 M205.5,538.3
	c-2.1,0.9-4.4,1.4-6.8,1.4c-2.3,0-4.6-0.5-6.6-1.3 M191.6,506c2.2-1,4.6-1.5,7.1-1.5c2.4,0,4.7,0.5,6.8,1.4 M193.7,518.1L160.8,502
	 M194.9,517.1l-16.3-32.5 M202.5,517.1l16.1-32.8 M203.5,518.4l32.5-16.3 M218.6,502l17.7-17.7 M203.6,525.9l32.8,16.1 M202.4,526.9
	l16.3,32.5 M194.7,527.1l-16.1,32.8 M193.6,525.8l-32.5,16.3 M178.5,542.3L160.8,560 M217.2,540.4l3.3,3.3 M223.4,546.8l3.3,3.3
	 M170.7,493.8l3.3,3.3 M176.9,500.2l3.3,3.3 M286.1,538.3c-2.1,0.9-4.4,1.4-6.8,1.4c-2.3,0-4.6-0.5-6.6-1.3 M272.1,506
	c2.2-1,4.6-1.5,7.1-1.5c2.4,0,4.7,0.5,6.8,1.4 M274.2,518.1L241.4,502 M275.5,517.1l-16.3-32.5 M283.1,517.1l16.1-32.8 M284.1,518.4
	l32.5-16.3 M299.2,502l17.7-17.7 M284.2,525.9L317,542 M282.9,526.9l16.3,32.5 M275.2,527.1l-16.1,32.8 M274.2,525.8l-32.5,16.3
	 M259.1,542.3L241.4,560 M297.7,540.4l3.3,3.3 M304,546.8l3.3,3.3 M251.2,493.8l3.3,3.3 M257.5,500.2l3.3,3.3 M294.5,358.6
	c-0.4-2.3-1.2-4.4-2.5-6.3 M263.9,363.1c0.3,2.4,1.2,4.6,2.5,6.5 M277.6,339.2l3.3,3.3 M277.6,379.5l3.3,3.3 M297.8,379.5l3.3,3.3
	 M304.1,385.7l3.3,3.3 M251.2,333l3.3,3.3 M257.5,339.2l3.3,3.3 M273.6,355.2l3.3,3.3 M281.6,363.4l3.3,3.3 M241.4,361h35.5
	 M281.6,361h35.5 M281.7,358.5l35.4-35.4 M293.3,340.9l17.7-17.7 M247.4,398.8l17.7-17.7 M241.4,398.8l35.4-35.4 M193.6,365
	l-32.8,16.1 M194.8,366.1l-16.3,32.5 M203.5,357.2l32.8-16.1 M202.3,356.1l16.3-32.5 M214.1,361.5c0.1-2.3-0.4-4.6-1.2-6.6
	 M183.2,360.2c-0.1,2.4,0.3,4.8,1.2,6.9 M197,339.2l3.3,3.3 M197,379.5l3.3,3.3 M217.2,379.5l3.3,3.3 M223.6,385.7l3.3,3.3
	 M170.6,333l3.3,3.3 M176.9,339.2l3.3,3.3 M193,355.2l3.3,3.3 M201,363.4l3.3,3.3 M205.8,353.9l30.8-30.8 M160.8,398.8l30.4-30.4
	 M113,606.7l-32.8,16.1 M114.3,607.7L98,640.3 M123,598.9l32.8-16.1 M121.7,597.8l16.3-32.5 M133.6,603.2c0.1-2.3-0.4-4.6-1.2-6.6
	 M102.7,601.9c-0.1,2.4,0.3,4.8,1.2,6.9 M116.5,580.9l3.3,3.3 M116.5,621.2l3.3,3.3 M136.6,621.2l3.3,3.3 M143,627.4l3.3,3.3
	 M90,574.7l3.3,3.3 M96.4,580.9l3.3,3.3 M112.5,596.9l3.3,3.3 M120.4,605.1l3.3,3.3 M125.2,595.6l30.8-30.8 M80.3,640.5l30.4-30.4
	 M134.3,448.4c0.9-2.1,1.4-4.4,1.4-6.8c0-2.3-0.5-4.6-1.3-6.6 M102.1,434.4c-1,2.2-1.5,4.6-1.5,7.1c0,2.4,0.5,4.7,1.4,6.8
	 M114.2,436.5L98,403.7 M113.1,437.8l-32.5-16.3 M113.2,445.4l-32.8,16.1 M114.5,446.4l-16.3,32.5 M98.1,461.5l-17.7,17.7
	 M121.9,446.5l16.1,32.8 M123,445.2l32.5,16.3 M123.2,437.5l32.8-16.1 M121.9,436.5l16.3-32.5 M138.3,421.4l17.7-17.7 M136.5,460
	l3.3,3.3 M142.8,466.3l3.3,3.3 M89.9,413.5l3.3,3.3 M96.2,419.8l3.3,3.3 M134.3,367.8c0.9-2.1,1.4-4.4,1.4-6.8
	c0-2.3-0.5-4.6-1.3-6.6 M102.1,353.9c-1,2.2-1.5,4.6-1.5,7.1c0,2.4,0.5,4.7,1.4,6.8 M114.2,356L98,323.1 M113.1,357.2L80.6,341
	 M113.2,364.8l-32.8,16.1 M114.5,365.8l-16.3,32.5 M98.1,380.9l-17.7,17.7 M121.9,365.9l16.1,32.8 M123,364.7l32.5,16.3
	 M123.2,356.9l32.8-16.1 M121.9,355.9l16.3-32.5 M138.3,340.8l17.7-17.7 M136.5,379.5l3.3,3.3 M142.8,385.7l3.3,3.3 M89.9,333
	l3.3,3.3 M96.2,339.2l3.3,3.3 M214.9,609.5c0.9-2.1,1.4-4.4,1.4-6.8c0-2.3-0.5-4.6-1.3-6.6 M182.6,595.6c-1,2.2-1.5,4.6-1.5,7.1
	c0,2.4,0.5,4.7,1.4,6.8 M194.7,597.7l-16.1-32.8 M193.7,598.9l-32.5-16.3 M193.7,606.5l-32.8,16.1 M195,607.5l-16.3,32.5
	 M178.6,622.6l-17.7,17.7 M202.5,607.6l16.1,32.8 M203.5,606.4l32.5,16.3 M203.7,598.6l32.8-16.1 M202.4,597.6l16.3-32.5
	 M218.8,582.5l17.7-17.7 M217,621.2l3.3,3.3 M223.4,627.4l3.3,3.3 M170.4,574.7l3.3,3.3 M176.7,580.9l3.3,3.3"/>
<path fill="none" stroke="#D1B387" stroke-width="1.028" stroke-miterlimit="10" d="M114.1,527.2L98,560 M113.1,525.9l-32.5,16.3
	 M122,517.2l16.1-32.8 M123,518.5l32.5-16.3 M117.6,506.6c2.3-0.1,4.6,0.4,6.6,1.2 M118.9,537.6c-2.4,0.1-4.8-0.3-6.9-1.2
	 M139.9,523.8l-3.3-3.3 M99.6,523.8l-3.3-3.3 M99.6,503.6l-3.3-3.3 M93.4,497.2l-3.3-3.3 M146.2,550.2l-3.3-3.3 M139.9,543.8
	l-3.3-3.3 M123.9,527.7l-3.3-3.3 M115.8,519.8l-3.3-3.3 M125.3,515l30.8-30.8 M80.3,559.9l30.4-30.4 M33.5,527.2L17.4,560
	 M32.5,525.9L0,542.2 M41.4,517.2l16.1-32.8 M42.4,518.5l32.5-16.3 M37,506.6c2.3-0.1,4.6,0.4,6.6,1.2 M38.4,537.6
	c-2.4,0.1-4.8-0.3-6.9-1.2 M59.3,523.8l-3.3-3.3 M19.1,523.8l-3.3-3.3"/>
<path fill="none" stroke="#D1B387" stroke-width="1.028" stroke-miterlimit="10" d="M1005,42.4l32.5,16.3 M1020.1,58.8l17.7,17.7
	 M1005.1,34.9l32.8-16.1 M1003.8,33.9l16.3-32.5 M1020.3,18.8L1038,1.1 M996.1,33.7L980,0.9 M995.1,35l-32.5-16.3 M980,18.6
	L962.3,0.8 M1165.4,114.2l16.1-32.8 M1166.4,115.4l32.5-16.3 M1157.5,124.1l-16.1,32.8 M1156.5,122.9l-32.5,16.3 M1161.9,134.7
	c-2.3,0.1-4.6-0.4-6.6-1.2 M1160.5,103.8c2.4-0.1,4.8,0.3,6.9,1.2 M1139.5,117.6l3.3,3.3 M1179.8,117.6l3.3,3.3 M1179.8,137.8
	l3.3,3.3 M1186.1,144.2l3.3,3.3 M1133.3,91.2l3.3,3.3 M1139.5,97.5l3.3,3.3 M1155.5,113.6l3.3,3.3 M1163.7,121.6l3.3,3.3
	 M1154.2,126.4l-30.8,30.8 M1199.1,81.4l-30.4,30.4 M1245.9,114.2l16.1-32.8 M1246.9,115.4l32.5-16.3 M1238,124.1l-16.1,32.8
	 M1237,122.9l-32.5,16.3 M1242.4,134.7c-2.3,0.1-4.6-0.4-6.6-1.2 M1241,103.8c2.4-0.1,4.8,0.3,6.9,1.2 M1220.1,117.6l3.3,3.3
	 M1260.3,117.6l3.3,3.3 M1260.3,137.8l3.3,3.3 M1266.6,144.2l3.3,3.3 M1213.8,91.2l3.3,3.3 M1220.1,97.5l3.3,3.3 M1236.1,113.6
	l3.3,3.3 M1244.2,121.6l3.3,3.3 M1234.7,126.4l-30.8,30.8 M1279.7,81.4l-30.4,30.4 M1168.1,216c-2.1,0.9-4.4,1.4-6.8,1.4
	c-2.3,0-4.6-0.5-6.6-1.3 M1154.2,183.8c2.2-1,4.6-1.5,7.1-1.5c2.4,0,4.7,0.5,6.8,1.4 M1156.3,195.9l-32.8-16.1 M1157.5,194.8
	l-16.3-32.5 M1165.1,194.9l16.1-32.8 M1166.1,196.2l32.5-16.3 M1181.2,179.8l17.7-17.7 M1166.2,203.6l32.8,16.1 M1165,204.6
	l16.3,32.5 M1157.2,204.9l-16.1,32.8 M1156.2,203.6l-32.5,16.3 M1141.1,220l-17.7,17.7 M1179.8,218.2l3.3,3.3 M1186,224.5l3.3,3.3
	 M1133.3,171.6l3.3,3.3 M1139.5,177.9l3.3,3.3 M1248.7,216c-2.1,0.9-4.4,1.4-6.8,1.4c-2.3,0-4.6-0.5-6.6-1.3 M1234.7,183.8
	c2.2-1,4.6-1.5,7.1-1.5c2.4,0,4.7,0.5,6.8,1.4 M1236.8,195.9l-32.8-16.1 M1238.1,194.8l-16.3-32.5 M1245.7,194.9l16.1-32.8
	 M1246.7,196.2l32.5-16.3 M1261.8,179.8l17.7-17.7 M1246.8,203.6l32.8,16.1 M1245.5,204.6l16.3,32.5 M1237.8,204.9l-16.1,32.8
	 M1236.8,203.6l-32.5,16.3 M1221.7,220l-17.7,17.7 M1260.3,218.2l3.3,3.3 M1266.6,224.5l3.3,3.3 M1213.8,171.6l3.3,3.3
	 M1220.1,177.9l3.3,3.3 M1257.1,36.4c-0.4-2.3-1.2-4.4-2.5-6.3 M1226.5,40.8c0.3,2.4,1.2,4.6,2.5,6.5 M1240.2,16.9l3.3,3.3
	 M1240.2,57.2l3.3,3.3 M1260.4,57.2l3.3,3.3 M1266.7,63.5l3.3,3.3 M1213.8,10.7l3.3,3.3 M1220.1,16.9l3.3,3.3 M1236.2,32.9l3.3,3.3
	 M1244.2,41.1l3.3,3.3 M1204,38.7h35.5 M1244.2,38.7h35.5 M1244.3,36.3l35.4-35.4 M1255.9,18.6L1273.6,1 M1210,76.5l17.7-17.7
	 M1204,76.5l35.4-35.4 M1156.2,42.8l-32.8,16.1 M1157.4,43.8l-16.3,32.5 M1166.1,34.9l32.8-16.1 M1164.9,33.9l16.3-32.5
	 M1176.7,39.3c0.1-2.3-0.4-4.6-1.2-6.6 M1145.8,37.9c-0.1,2.4,0.3,4.8,1.2,6.9 M1159.6,16.9l3.3,3.3 M1159.6,57.2l3.3,3.3
	 M1179.8,57.2l3.3,3.3 M1186.2,63.5l3.3,3.3 M1133.2,10.7l3.3,3.3 M1139.5,16.9l3.3,3.3 M1155.6,32.9l3.3,3.3 M1163.6,41.1l3.3,3.3
	 M1168.4,31.6l30.8-30.8 M1123.4,76.5l30.4-30.4 M1075.6,284.5l-32.8,16.1 M1076.9,285.5l-16.3,32.5 M1085.6,276.6l32.8-16.1
	 M1084.3,275.6l16.3-32.5 M1096.2,281c0.1-2.3-0.4-4.6-1.2-6.6 M1065.2,279.6c-0.1,2.4,0.3,4.8,1.2,6.9 M1079,258.6l3.3,3.3
	 M1079,298.9l3.3,3.3 M1099.2,298.9l3.3,3.3 M1105.6,305.1l3.3,3.3 M1052.6,252.4l3.3,3.3 M1059,258.6l3.3,3.3 M1075.1,274.6
	l3.3,3.3 M1083,282.8l3.3,3.3 M1087.8,273.3l30.8-30.8 M1042.9,318.2l30.3-30.4 M1096.9,126.1c0.9-2.1,1.4-4.4,1.4-6.8
	c0-2.3-0.5-4.6-1.3-6.6 M1064.7,112.2c-1,2.2-1.5,4.6-1.5,7.1c0,2.4,0.5,4.7,1.4,6.8 M1076.8,114.3l-16.1-32.8 M1075.7,115.5
	l-32.5-16.3 M1075.8,123.1l-32.8,16.1 M1077.1,124.1l-16.3,32.5 M1060.7,139.2l-17.7,17.7 M1084.5,124.2l16.1,32.8 M1085.5,123
	l32.5,16.3 M1085.8,115.2l32.8-16.1 M1084.5,114.2l16.3-32.5 M1100.9,99.1l17.7-17.7 M1099.1,137.8l3.3,3.3 M1105.4,144l3.3,3.3
	 M1052.5,91.3l3.3,3.3 M1058.8,97.5l3.3,3.3 M1096.9,45.5c0.9-2.1,1.4-4.4,1.4-6.8c0-2.3-0.5-4.6-1.3-6.6 M1064.7,31.6
	c-1,2.2-1.5,4.6-1.5,7.1c0,2.4,0.5,4.7,1.4,6.8 M1076.8,33.7l-16.1-32.8 M1075.7,35l-32.5-16.3 M1075.8,42.5L1043,58.7 M1077.1,43.6
	l-16.3,32.5 M1060.7,58.7l-17.7,17.7 M1084.5,43.7l16.1,32.8 M1085.5,42.4l32.5,16.3 M1085.8,34.7l32.8-16.1 M1084.5,33.7l16.3-32.5
	 M1100.9,18.6l17.7-17.7 M1099.1,57.2l3.3,3.3 M1105.4,63.5l3.3,3.3 M1052.5,10.7l3.3,3.3 M1058.8,16.9l3.3,3.3 M1177.5,287.2
	c0.9-2.1,1.4-4.4,1.4-6.8c0-2.3-0.5-4.6-1.3-6.6 M1145.2,273.3c-1,2.2-1.5,4.6-1.5,7.1c0,2.4,0.5,4.7,1.4,6.8 M1157.3,275.4
	l-16.1-32.8 M1156.3,276.7l-32.5-16.3 M1156.3,284.2l-32.8,16.1 M1157.6,285.3l-16.3,32.5 M1141.2,300.4l-17.7,17.7 M1165,285.4
	l16.1,32.8 M1166.1,284.1l32.5,16.3 M1166.3,276.4l32.8-16.1 M1165,275.3l16.3-32.5 M1181.4,260.3l17.7-17.7 M1179.6,298.9l3.3,3.3
	 M1185.9,305.1l3.3,3.3 M1133,252.4l3.3,3.3 M1139.3,258.6l3.3,3.3 M1235.2,296.7c2,0.8,4.3,1.3,6.6,1.3c2.3,0,4.6-0.5,6.6-1.3
	 M1258,287.2c0.9-2.1,1.4-4.4,1.4-6.8c0-2.3-0.5-4.6-1.3-6.6 M1249,264.4c-2.2-1-4.6-1.5-7.2-1.5c-2.6,0-5,0.5-7.2,1.5
	 M1225.8,273.3c-1,2.2-1.5,4.6-1.5,7.1c0,2.4,0.5,4.7,1.4,6.8 M1237.9,275.4l-16.1-32.8 M1236.8,276.7l-32.5-16.3 M1221.7,260.3
	l-17.7-17.7 M1236.9,284.2l-32.8,16.1 M1238.1,285.3l-16.3,32.5 M1221.7,300.4l-17.7,17.7 M1245.6,285.4l16.1,32.8 M1246.6,284.1
	l32.5,16.3 M1261.7,300.5l17.7,17.7 M1246.9,276.4l32.8-16.1 M1245.6,275.3l16.3-32.5 M1262,260.3l17.7-17.7 M1015.4,278
	c-0.4-2.3-1.2-4.4-2.5-6.3 M984.8,282.5c0.3,2.4,1.2,4.6,2.5,6.5 M998.5,258.6l3.3,3.3 M998.5,298.9l3.3,3.3 M1018.7,298.9l3.3,3.3
	 M1025,305.1l3.3,3.3 M972.1,252.4l3.3,3.3 M978.4,258.6l3.3,3.3 M994.5,274.6l3.3,3.3 M1002.5,282.8l3.3,3.3 M962.3,280.4h35.5
	 M1002.5,280.4h35.5 M1002.6,278l35.4-35.4 M1014.2,260.3l17.7-17.7 M968.3,318.2l17.7-17.7 M962.3,318.2l35.4-35.4"/>
<path fill="none" stroke="#D1B387" stroke-width="1.028" stroke-miterlimit="10" d="M926.4,216c-2.1,0.9-4.4,1.4-6.8,1.4
	c-2.3,0-4.6-0.5-6.6-1.3 M912.5,183.8c2.2-1,4.6-1.5,7.1-1.5c2.4,0,4.7,0.5,6.8,1.4 M914.6,195.9l-32.8-16.1 M915.9,194.8
	l-16.3-32.5 M923.4,194.9l16.1-32.8 M924.5,196.2l32.5-16.3 M939.5,179.8l17.7-17.7 M924.6,203.6l32.8,16.1 M923.3,204.6l16.3,32.5
	 M915.6,204.9l-16.1,32.8 M914.5,203.6L882,219.9 M899.4,220l-17.7,17.7 M938.1,218.2l3.3,3.3 M944.3,224.5l3.3,3.3 M891.6,171.6
	l3.3,3.3 M897.8,177.9l3.3,3.3 M934.9,36.4c-0.4-2.3-1.2-4.4-2.5-6.3 M904.3,40.8c0.3,2.4,1.2,4.6,2.5,6.5 M917.9,16.9l3.3,3.3
	 M917.9,57.2l3.3,3.3 M938.1,57.2l3.3,3.3 M944.5,63.5l3.3,3.3 M891.5,10.7l3.3,3.3 M897.9,16.9l3.3,3.3 M914,32.9l3.3,3.3
	 M921.9,41.1l3.3,3.3 M881.8,38.7h35.5 M921.9,38.7h35.5 M922,36.3l35.4-35.4 M933.7,18.6L951.3,1 M887.8,76.5l17.7-17.7
	 M881.8,76.5l35.4-35.4 M833.9,42.8l-32.8,16.1 M835.2,43.8l-16.3,32.5 M843.9,34.9l32.8-16.1 M842.6,33.9l16.3-32.5 M854.5,39.3
	c0.1-2.3-0.4-4.6-1.2-6.6 M823.6,37.9c-0.1,2.4,0.3,4.8,1.2,6.9 M837.4,16.9l3.3,3.3 M837.4,57.2l3.3,3.3 M857.6,57.2l3.3,3.3
	 M863.9,63.5l3.3,3.3 M810.9,10.7l3.3,3.3 M817.3,16.9l3.3,3.3 M833.4,32.9l3.3,3.3 M841.4,41.1l3.3,3.3 M846.1,31.6l30.8-30.8
	 M801.2,76.5l30.4-30.4 M753.3,284.5l-32.8,16.1 M754.6,285.5L738.3,318 M763.3,276.6l32.8-16.1 M762.1,275.6l16.3-32.5 M773.9,281
	c0.1-2.3-0.4-4.6-1.2-6.6 M743,279.6c-0.1,2.4,0.3,4.8,1.2,6.9 M756.8,258.6l3.3,3.3 M756.8,298.9l3.3,3.3 M777,298.9l3.3,3.3
	 M783.3,305.1l3.3,3.3 M730.4,252.4l3.3,3.3 M736.7,258.6l3.3,3.3 M752.8,274.6l3.3,3.3 M760.8,282.8l3.3,3.3 M765.6,273.3
	l30.8-30.8 M720.6,318.2l30.4-30.4 M774.7,126.1c0.9-2.1,1.4-4.4,1.4-6.8c0-2.3-0.5-4.6-1.3-6.6 M742.4,112.2
	c-1,2.2-1.5,4.6-1.5,7.1c0,2.4,0.5,4.7,1.4,6.8 M754.5,114.3l-16.1-32.8 M753.5,115.5L721,99.3 M753.5,123.1l-32.8,16.1
	 M754.8,124.1l-16.3,32.5 M738.4,139.2l-17.7,17.7 M762.3,124.2l16.1,32.8 M763.3,123l32.5,16.3 M763.5,115.2l32.8-16.1
	 M762.2,114.2l16.3-32.5 M778.6,99.1l17.7-17.7 M776.8,137.8l3.3,3.3 M783.2,144l3.3,3.3 M730.2,91.3l3.3,3.3 M736.6,97.5l3.3,3.3
	 M774.7,45.5c0.9-2.1,1.4-4.4,1.4-6.8c0-2.3-0.5-4.6-1.3-6.6 M742.4,31.6c-1,2.2-1.5,4.6-1.5,7.1c0,2.4,0.5,4.7,1.4,6.8 M754.5,33.7
	L738.4,0.9 M753.5,35L721,18.7 M753.5,42.5l-32.8,16.1 M754.8,43.6l-16.3,32.5 M738.4,58.7l-17.7,17.7 M762.3,43.7l16.1,32.8
	 M763.3,42.4l32.5,16.3 M763.5,34.7l32.8-16.1 M762.2,33.7l16.3-32.5 M778.6,18.6l17.7-17.7 M776.8,57.2l3.3,3.3 M783.2,63.5
	l3.3,3.3 M730.2,10.7l3.3,3.3 M736.6,16.9l3.3,3.3 M855.2,287.2c0.9-2.1,1.4-4.4,1.4-6.8c0-2.3-0.5-4.6-1.3-6.6 M822.9,273.3
	c-1,2.2-1.5,4.6-1.5,7.1c0,2.4,0.5,4.7,1.4,6.8 M835,275.4l-16.1-32.8 M834,276.7l-32.5-16.3 M834.1,284.2l-32.8,16.1 M835.3,285.3
	l-16.3,32.5 M818.9,300.4l-17.7,17.7 M842.8,285.4l16.1,32.8 M843.8,284.1l32.5,16.3 M844,276.4l32.8-16.1 M842.8,275.3l16.3-32.5
	 M859.2,260.3l17.7-17.7 M857.4,298.9l3.3,3.3 M863.7,305.1l3.3,3.3 M810.7,252.4l3.3,3.3 M817.1,258.6l3.3,3.3 M913,296.7
	c2,0.8,4.3,1.3,6.6,1.3c2.3,0,4.6-0.5,6.6-1.3 M935.8,287.2c0.9-2.1,1.4-4.4,1.4-6.8c0-2.3-0.5-4.6-1.3-6.6 M926.8,264.4
	c-2.2-1-4.6-1.5-7.2-1.5c-2.6,0-5,0.5-7.2,1.5 M903.5,273.3c-1,2.2-1.5,4.6-1.5,7.1c0,2.4,0.5,4.7,1.4,6.8 M915.6,275.4l-16.1-32.8
	 M914.6,276.7L882,260.4 M899.5,260.3l-17.7-17.7 M914.6,284.2l-32.8,16.1 M915.9,285.3l-16.3,32.5 M899.5,300.4l-17.7,17.7
	 M923.4,285.4l16.1,32.8 M924.4,284.1l32.5,16.3 M939.5,300.5l17.7,17.7 M924.6,276.4l32.8-16.1 M923.3,275.3l16.3-32.5
	 M939.7,260.3l17.7-17.7 M693.2,278c-0.4-2.3-1.2-4.4-2.5-6.3 M662.6,282.5c0.3,2.4,1.2,4.6,2.5,6.5 M676.2,258.6l3.3,3.3
	 M676.2,298.9l3.3,3.3 M696.4,298.9l3.3,3.3 M702.8,305.1l3.3,3.3 M649.8,252.4l3.3,3.3 M656.2,258.6l3.3,3.3 M672.3,274.6l3.3,3.3
	 M680.2,282.8l3.3,3.3 M640.1,280.4h35.5 M680.2,280.4h35.5 M680.3,278l35.4-35.4 M692,260.3l17.7-17.7 M646.1,318.2l17.7-17.7
	 M640.1,318.2l35.4-35.4 M1076.7,205l-16.1,32.8 M1075.7,203.7l-32.5,16.3 M1084.6,195l16.1-32.8 M1085.6,196.2l32.5-16.3
	 M1080.2,184.4c2.3-0.1,4.6,0.4,6.6,1.2 M1081.5,215.3c-2.4,0.1-4.8-0.3-6.9-1.2 M1102.5,201.5l-3.3-3.3 M1062.2,201.5l-3.3-3.3
	 M1062.2,181.3l-3.3-3.3 M1056,175l-3.3-3.3 M1108.7,227.9l-3.3-3.3 M1102.5,221.6l-3.3-3.3 M1086.5,205.5l-3.3-3.3 M1078.3,197.5
	l-3.3-3.3 M1087.8,192.7l30.8-30.8 M1042.9,237.7l30.4-30.4 M996.1,205L980,237.8 M995.1,203.7L962.5,220 M1004,195l16.1-32.8
	 M1005,196.2l32.5-16.3 M999.6,184.4c2.3-0.1,4.6,0.4,6.6,1.2 M1001,215.3c-2.4,0.1-4.8-0.3-6.9-1.2 M1021.9,201.5l-3.3-3.3
	 M981.6,201.5l-3.3-3.3 M981.6,181.3l-3.3-3.3 M975.4,175l-3.3-3.3 M1028.2,227.9l-3.3-3.3 M1021.9,221.6l-3.3-3.3 M1005.9,205.5
	l-3.3-3.3 M997.8,197.5l-3.3-3.3 M1007.3,192.7L1038,162 M962.3,237.7l30.4-30.4 M993.3,103.1c2.1-0.9,4.4-1.4,6.8-1.4
	c2.3,0,4.6,0.5,6.6,1.3 M1007.3,135.4c-2.2,1-4.6,1.5-7.1,1.5c-2.4,0-4.7-0.5-6.8-1.4 M1005.2,123.3l32.8,16.1 M1003.9,124.3
	l16.3,32.5 M996.3,124.2l-16.1,32.8 M995.3,123l-32.5,16.3 M980.2,139.4l-17.7,17.7 M995.2,115.5l-32.8-16.1 M996.5,114.5
	l-16.3-32.5 M1004.2,114.3l16.1-32.8 M1005.2,115.5l32.5-16.3 M1020.3,99.1l17.7-17.7 M981.6,100.9l-3.3-3.3 M975.4,94.6l-3.3-3.3
	 M1028.2,147.6l-3.3-3.3 M1021.9,141.2l-3.3-3.3 M1016.4,45.3c0.8-2,1.3-4.3,1.3-6.6c0-2.4-0.5-4.6-1.3-6.6 M1007,22.5
	c-2.1-0.9-4.4-1.4-6.8-1.4c-2.3,0-4.6,0.5-6.6,1.3 M984.1,31.5c-1,2.2-1.5,4.6-1.5,7.2c0,2.6,0.5,5,1.5,7.2 M993.1,54.8
	c2.2,1,4.6,1.5,7.1,1.5c2.4,0,4.7-0.5,6.8-1.4 M995.1,42.7l-32.8,16.1 M996.4,43.7l-16.3,32.5 M980,58.8l-17.7,17.7 M1004,43.7
	l16.1,32.8"/>
<path fill="none" stroke="#D1B387" stroke-width="1.028" stroke-miterlimit="10" d="M1099.2,621.2l3.3,3.3 M1105.6,627.4l3.3,3.3
	 M1052.6,574.7l3.3,3.3 M1059,580.9l3.3,3.3 M1075.1,596.9l3.3,3.3 M1083,605.1l3.3,3.3 M1087.8,595.6l30.8-30.8 M1042.9,640.5
	l30.4-30.4 M1096.9,448.4c0.9-2.1,1.4-4.4,1.4-6.8c0-2.3-0.5-4.6-1.3-6.6 M1064.7,434.4c-1,2.2-1.5,4.6-1.5,7.1
	c0,2.4,0.5,4.7,1.4,6.8 M1076.8,436.5l-16.1-32.8 M1075.7,437.8l-32.5-16.3 M1075.8,445.4l-32.8,16.1 M1077.1,446.4l-16.3,32.5
	 M1060.7,461.5l-17.7,17.7 M1084.5,446.5l16.1,32.8 M1085.5,445.2l32.5,16.3 M1085.8,437.5l32.8-16.1 M1084.5,436.5l16.3-32.5
	 M1100.9,421.4l17.7-17.7 M1099.1,460l3.3,3.3 M1105.4,466.3l3.3,3.3 M1052.5,413.5l3.3,3.3 M1058.8,419.8l3.3,3.3 M1096.9,367.8
	c0.9-2.1,1.4-4.4,1.4-6.8c0-2.3-0.5-4.6-1.3-6.6 M1064.7,353.9c-1,2.2-1.5,4.6-1.5,7.1c0,2.4,0.5,4.7,1.4,6.8 M1076.8,356
	l-16.1-32.8 M1075.7,357.2l-32.5-16.3 M1075.8,364.8l-32.8,16.1 M1077.1,365.8l-16.3,32.5 M1060.7,380.9l-17.7,17.7 M1084.5,365.9
	l16.1,32.8 M1085.5,364.7l32.5,16.3 M1085.8,356.9l32.8-16.1 M1084.5,355.9l16.3-32.5 M1100.9,340.8l17.7-17.7 M1099.1,379.5
	l3.3,3.3 M1105.4,385.7l3.3,3.3 M1052.5,333l3.3,3.3 M1058.8,339.2l3.3,3.3 M1177.5,609.5c0.9-2.1,1.4-4.4,1.4-6.8
	c0-2.3-0.5-4.6-1.3-6.6 M1145.2,595.6c-1,2.2-1.5,4.6-1.5,7.1c0,2.4,0.5,4.7,1.4,6.8 M1157.3,597.7l-16.1-32.8 M1156.3,598.9
	l-32.5-16.3 M1156.3,606.5l-32.8,16.1 M1157.6,607.5l-16.3,32.5 M1141.2,622.6l-17.7,17.7 M1165,607.6l16.1,32.8 M1166.1,606.4
	l32.5,16.3 M1166.3,598.6l32.8-16.1 M1165,597.6l16.3-32.5 M1181.4,582.5l17.7-17.7 M1179.6,621.2l3.3,3.3 M1185.9,627.4l3.3,3.3
	 M1133,574.7l3.3,3.3 M1139.3,580.9l3.3,3.3 M1235.2,618.9c2,0.8,4.3,1.3,6.6,1.3c2.3,0,4.6-0.5,6.6-1.3 M1258,609.5
	c0.9-2.1,1.4-4.4,1.4-6.8c0-2.3-0.5-4.6-1.3-6.6 M1249,586.6c-2.2-1-4.6-1.5-7.2-1.5c-2.6,0-5,0.5-7.2,1.5 M1225.8,595.6
	c-1,2.2-1.5,4.6-1.5,7.1c0,2.4,0.5,4.7,1.4,6.8 M1237.9,597.7l-16.1-32.8 M1236.8,598.9l-32.5-16.3 M1221.7,582.5l-17.7-17.7
	 M1236.9,606.5l-32.8,16.1 M1238.1,607.5l-16.3,32.5 M1221.7,622.6l-17.7,17.7 M1245.6,607.6l16.1,32.8 M1246.6,606.4l32.5,16.3
	 M1261.7,622.8l17.7,17.7 M1246.9,598.6l32.8-16.1 M1245.6,597.6l16.3-32.5 M1262,582.5l17.7-17.7 M1015.4,600.3
	c-0.4-2.3-1.2-4.4-2.5-6.3 M984.8,604.8c0.3,2.4,1.2,4.6,2.5,6.5 M998.5,580.9l3.3,3.3 M998.5,621.2l3.3,3.3 M1018.7,621.2l3.3,3.3
	 M1025,627.4l3.3,3.3 M972.1,574.7l3.3,3.3 M978.4,580.9l3.3,3.3 M994.5,596.9l3.3,3.3 M1002.5,605.1l3.3,3.3 M962.3,602.7h35.5
	 M1002.5,602.7h35.5 M1002.6,600.2l35.4-35.4 M1014.2,582.6l17.7-17.7 M968.3,640.5l17.7-17.7 M962.3,640.5l35.4-35.4 M754.4,205
	l-16.1,32.8 M753.4,203.7L720.9,220 M762.3,195l16.1-32.8 M763.3,196.2l32.5-16.3 M757.9,184.4c2.3-0.1,4.6,0.4,6.6,1.2
	 M759.3,215.3c-2.4,0.1-4.8-0.3-6.9-1.2 M780.3,201.5l-3.3-3.3 M740,201.5l-3.3-3.3 M740,181.3l-3.3-3.3 M733.8,175l-3.3-3.3
	 M786.5,227.9l-3.3-3.3 M780.3,221.6l-3.3-3.3 M764.3,205.5l-3.3-3.3 M756.1,197.5l-3.3-3.3 M765.6,192.7l30.8-30.8 M720.7,237.7
	l30.4-30.4 M673.9,205l-16.1,32.8 M672.8,203.7L640.3,220 M681.7,195l16.1-32.8 M682.7,196.2l32.5-16.3 M677.3,184.4
	c2.3-0.1,4.6,0.4,6.6,1.2 M678.7,215.3c-2.4,0.1-4.8-0.3-6.9-1.2 M699.7,201.5l-3.3-3.3 M659.4,201.5l-3.3-3.3 M659.4,181.3
	l-3.3-3.3 M653.2,175l-3.3-3.3 M705.9,227.9l-3.3-3.3 M699.7,221.6l-3.3-3.3 M683.7,205.5l-3.3-3.3 M675.5,197.5l-3.3-3.3
	 M685,192.7l30.8-30.8 M640.1,237.7l30.4-30.4 M671.1,103.1c2.1-0.9,4.4-1.4,6.8-1.4c2.3,0,4.6,0.5,6.6,1.3 M685,135.4
	c-2.2,1-4.6,1.5-7.1,1.5c-2.4,0-4.7-0.5-6.8-1.4 M682.9,123.3l32.8,16.1 M681.6,124.3l16.3,32.5 M674.1,124.2L658,157.1 M673,123
	l-32.5,16.3 M658,139.4l-17.7,17.7 M672.9,115.5l-32.8-16.1 M674.2,114.5l-16.3-32.5 M681.9,114.3l16.1-32.8 M683,115.5l32.5-16.3
	 M698.1,99.1l17.7-17.7 M659.4,100.9l-3.3-3.3 M653.2,94.6l-3.3-3.3 M705.9,147.6l-3.3-3.3 M699.7,141.2l-3.3-3.3 M694.2,45.3
	c0.8-2,1.3-4.3,1.3-6.6c0-2.4-0.5-4.6-1.3-6.6 M684.7,22.5c-2.1-0.9-4.4-1.4-6.8-1.4c-2.3,0-4.6,0.5-6.6,1.3 M661.9,31.5
	c-1,2.2-1.5,4.6-1.5,7.2c0,2.6,0.5,5,1.5,7.2 M670.8,54.8c2.2,1,4.6,1.5,7.1,1.5c2.4,0,4.7-0.5,6.8-1.4 M672.9,42.7l-32.8,16.1
	 M674.2,43.7l-16.3,32.5 M657.8,58.8l-17.7,17.7 M681.7,43.7l16.1,32.8 M682.8,42.4l32.5,16.3 M697.9,58.8l17.7,17.7 M682.9,34.9
	l32.8-16.1 M681.6,33.9l16.3-32.5 M698,18.8l17.7-17.7 M673.9,33.7L657.8,0.9 M672.9,35l-32.5-16.3 M657.8,18.6L640,0.8
	 M843.1,114.2l16.1-32.8 M844.1,115.4l32.5-16.3 M835.3,124.1L819.1,157 M834.2,122.9l-32.5,16.3 M839.6,134.7
	c-2.3,0.1-4.6-0.4-6.6-1.2 M838.3,103.8c2.4-0.1,4.8,0.3,6.9,1.2 M817.3,117.6l3.3,3.3 M857.6,117.6l3.3,3.3 M857.6,137.8l3.3,3.3
	 M863.8,144.2l3.3,3.3 M811.1,91.2l3.3,3.3 M817.3,97.5l3.3,3.3 M833.3,113.6l3.3,3.3 M841.5,121.6l3.3,3.3 M832,126.4l-30.8,30.8
	 M876.9,81.4l-30.4,30.4 M923.6,114.2l16.1-32.8 M924.7,115.4l32.5-16.3 M915.8,124.1L899.7,157 M914.7,122.9l-32.5,16.3
	 M920.2,134.7c-2.3,0.1-4.6-0.4-6.6-1.2 M918.8,103.8c2.4-0.1,4.8,0.3,6.9,1.2 M897.8,117.6l3.3,3.3 M938.1,117.6l3.3,3.3
	 M938.1,137.8l3.3,3.3 M944.3,144.2l3.3,3.3 M891.6,91.2l3.3,3.3 M897.8,97.5l3.3,3.3 M913.8,113.6l3.3,3.3 M922,121.6l3.3,3.3
	 M912.5,126.4l-30.8,30.8 M957.4,81.4l-30.4,30.4 M845.9,216c-2.1,0.9-4.4,1.4-6.8,1.4c-2.3,0-4.6-0.5-6.6-1.3 M831.9,183.8
	c2.2-1,4.6-1.5,7.1-1.5c2.4,0,4.7,0.5,6.8,1.4 M834,195.9l-32.8-16.1 M835.3,194.8L819,162.3 M842.9,194.9l16.1-32.8 M843.9,196.2
	l32.5-16.3 M859,179.8l17.7-17.7 M844,203.6l32.8,16.1 M842.7,204.6l16.3,32.5 M835,204.9l-16.1,32.8 M834,203.6l-32.5,16.3
	 M818.9,220l-17.7,17.7 M857.5,218.2l3.3,3.3 M863.8,224.5l3.3,3.3 M811,171.6l3.3,3.3 M817.3,177.9l3.3,3.3"/>
<path fill="none" stroke="#D1B387" stroke-width="1.028" stroke-miterlimit="10" d="M913,618.9c2,0.8,4.3,1.3,6.6,1.3
	c2.3,0,4.6-0.5,6.6-1.3 M935.8,609.5c0.9-2.1,1.4-4.4,1.4-6.8c0-2.3-0.5-4.6-1.3-6.6 M926.8,586.6c-2.2-1-4.6-1.5-7.2-1.5
	c-2.6,0-5,0.5-7.2,1.5 M903.5,595.6c-1,2.2-1.5,4.6-1.5,7.1c0,2.4,0.5,4.7,1.4,6.8 M915.6,597.7l-16.1-32.8 M914.6,598.9L882,582.7
	 M899.5,582.5l-17.7-17.7 M914.6,606.5l-32.8,16.1 M915.9,607.5l-16.3,32.5 M899.5,622.6l-17.7,17.7 M923.4,607.6l16.1,32.8
	 M924.4,606.4l32.5,16.3 M939.5,622.8l17.7,17.7 M924.6,598.6l32.8-16.1 M923.3,597.6l16.3-32.5 M939.7,582.5l17.7-17.7
	 M693.2,600.3c-0.4-2.3-1.2-4.4-2.5-6.3 M662.6,604.8c0.3,2.4,1.2,4.6,2.5,6.5 M676.2,580.9l3.3,3.3 M676.2,621.2l3.3,3.3
	 M696.4,621.2l3.3,3.3 M702.8,627.4l3.3,3.3 M649.8,574.7l3.3,3.3 M656.2,580.9l3.3,3.3 M672.3,596.9l3.3,3.3 M680.2,605.1l3.3,3.3
	 M640.1,602.7h35.5 M680.2,602.7h35.5 M680.3,600.2l35.4-35.4 M692,582.6l17.7-17.7 M646.1,640.5l17.7-17.7 M640.1,640.5l35.4-35.4
	 M1076.7,527.2l-16.1,32.8 M1075.7,525.9l-32.5,16.3 M1084.6,517.2l16.1-32.8 M1085.6,518.5l32.5-16.3 M1080.2,506.6
	c2.3-0.1,4.6,0.4,6.6,1.2 M1081.5,537.6c-2.4,0.1-4.8-0.3-6.9-1.2 M1102.5,523.8l-3.3-3.3 M1062.2,523.8l-3.3-3.3 M1062.2,503.6
	l-3.3-3.3 M1056,497.2l-3.3-3.3 M1108.7,550.2l-3.3-3.3 M1102.5,543.8l-3.3-3.3 M1086.5,527.7l-3.3-3.3 M1078.3,519.8l-3.3-3.3
	 M1087.8,515l30.8-30.8 M1042.9,559.9l30.4-30.4 M996.1,527.2L980,560 M995.1,525.9l-32.5,16.3 M1004,517.2l16.1-32.8 M1005,518.5
	l32.5-16.3 M999.6,506.6c2.3-0.1,4.6,0.4,6.6,1.2 M1001,537.6c-2.4,0.1-4.8-0.3-6.9-1.2 M1021.9,523.8l-3.3-3.3 M981.6,523.8
	l-3.3-3.3 M981.6,503.6l-3.3-3.3 M975.4,497.2l-3.3-3.3 M1028.2,550.2l-3.3-3.3 M1021.9,543.8l-3.3-3.3 M1005.9,527.7l-3.3-3.3
	 M997.8,519.8l-3.3-3.3 M1007.3,515l30.8-30.8 M962.3,559.9l30.4-30.4 M993.3,425.3c2.1-0.9,4.4-1.4,6.8-1.4c2.3,0,4.6,0.5,6.6,1.3
	 M1007.3,457.6c-2.2,1-4.6,1.5-7.1,1.5c-2.4,0-4.7-0.5-6.8-1.4 M1005.2,445.5l32.8,16.1 M1003.9,446.5l16.3,32.5 M996.3,446.5
	l-16.1,32.8 M995.3,445.2l-32.5,16.3 M980.2,461.6l-17.7,17.7 M995.2,437.8l-32.8-16.1 M996.5,436.7l-16.3-32.5 M1004.2,436.5
	l16.1-32.8 M1005.2,437.8l32.5-16.3 M1020.3,421.4l17.7-17.7 M981.6,423.2l-3.3-3.3 M975.4,416.9l-3.3-3.3 M1028.2,469.8l-3.3-3.3
	 M1021.9,463.5l-3.3-3.3 M1016.4,367.6c0.8-2,1.3-4.3,1.3-6.6c0-2.4-0.5-4.6-1.3-6.6 M1007,344.8c-2.1-0.9-4.4-1.4-6.8-1.4
	c-2.3,0-4.6,0.5-6.6,1.3 M984.1,353.8c-1,2.2-1.5,4.6-1.5,7.2c0,2.6,0.5,5,1.5,7.2 M993.1,377c2.2,1,4.6,1.5,7.1,1.5
	c2.4,0,4.7-0.5,6.8-1.4 M995.1,365l-32.8,16.1 M996.4,366l-16.3,32.5 M980,381.1l-17.7,17.7 M1004,365.9l16.1,32.8 M1005,364.7
	l32.5,16.3 M1020.1,381.1l17.7,17.7 M1005.1,357.2l32.8-16.1 M1003.8,356.2l16.3-32.5 M1020.3,341.1l17.7-17.7 M996.1,356L980,323.1
	 M995.1,357.2l-32.5-16.3 M980,340.8l-17.7-17.7 M1165.4,436.4l16.1-32.8 M1166.4,437.7l32.5-16.3 M1157.5,446.4l-16.1,32.8
	 M1156.5,445.1l-32.5,16.3 M1161.9,457c-2.3,0.1-4.6-0.4-6.6-1.2 M1160.5,426.1c2.4-0.1,4.8,0.3,6.9,1.2 M1139.5,439.9l3.3,3.3
	 M1179.8,439.9l3.3,3.3 M1179.8,460.1l3.3,3.3 M1186.1,466.4l3.3,3.3 M1133.3,413.5l3.3,3.3 M1139.5,419.8l3.3,3.3 M1155.5,435.9
	l3.3,3.3 M1163.7,443.9l3.3,3.3 M1154.2,448.6l-30.8,30.8 M1199.1,403.7l-30.4,30.4 M1245.9,436.4l16.1-32.8 M1246.9,437.7
	l32.5-16.3 M1238,446.4l-16.1,32.8 M1237,445.1l-32.5,16.3 M1242.4,457c-2.3,0.1-4.6-0.4-6.6-1.2 M1241,426.1
	c2.4-0.1,4.8,0.3,6.9,1.2 M1220.1,439.9l3.3,3.3 M1260.3,439.9l3.3,3.3 M1260.3,460.1l3.3,3.3 M1266.6,466.4l3.3,3.3 M1213.8,413.5
	l3.3,3.3 M1220.1,419.8l3.3,3.3 M1236.1,435.9l3.3,3.3 M1244.2,443.9l3.3,3.3 M1234.7,448.6l-30.8,30.8 M1279.7,403.7l-30.4,30.4
	 M1168.1,538.3c-2.1,0.9-4.4,1.4-6.8,1.4c-2.3,0-4.6-0.5-6.6-1.3 M1154.2,506c2.2-1,4.6-1.5,7.1-1.5c2.4,0,4.7,0.5,6.8,1.4
	 M1156.3,518.1l-32.8-16.1 M1157.5,517.1l-16.3-32.5 M1165.1,517.1l16.1-32.8 M1166.1,518.4l32.5-16.3 M1181.2,502l17.7-17.7
	 M1166.2,525.9l32.8,16.1 M1165,526.9l16.3,32.5 M1157.2,527.1l-16.1,32.8 M1156.2,525.8l-32.5,16.3 M1141.1,542.3l-17.7,17.7
	 M1179.8,540.4l3.3,3.3 M1186,546.8l3.3,3.3 M1133.3,493.8l3.3,3.3 M1139.5,500.2l3.3,3.3 M1248.7,538.3c-2.1,0.9-4.4,1.4-6.8,1.4
	c-2.3,0-4.6-0.5-6.6-1.3 M1234.7,506c2.2-1,4.6-1.5,7.1-1.5c2.4,0,4.7,0.5,6.8,1.4 M1236.8,518.1L1204,502 M1238.1,517.1l-16.3-32.5
	 M1245.7,517.1l16.1-32.8 M1246.7,518.4l32.5-16.3 M1261.8,502l17.7-17.7 M1246.8,525.9l32.8,16.1 M1245.5,526.9l16.3,32.5
	 M1237.8,527.1l-16.1,32.8 M1236.8,525.8l-32.5,16.3 M1221.7,542.3L1204,560 M1260.3,540.4l3.3,3.3 M1266.6,546.8l3.3,3.3
	 M1213.8,493.8l3.3,3.3 M1220.1,500.2l3.3,3.3 M1257.1,358.6c-0.4-2.3-1.2-4.4-2.5-6.3 M1226.5,363.1c0.3,2.4,1.2,4.6,2.5,6.5
	 M1240.2,339.2l3.3,3.3 M1240.2,379.5l3.3,3.3 M1260.4,379.5l3.3,3.3 M1266.7,385.7l3.3,3.3 M1213.8,333l3.3,3.3 M1220.1,339.2
	l3.3,3.3 M1236.2,355.2l3.3,3.3 M1244.2,363.4l3.3,3.3 M1204,361h35.5 M1244.2,361h35.5 M1244.3,358.5l35.4-35.4 M1255.9,340.9
	l17.7-17.7 M1210,398.8l17.7-17.7 M1204,398.8l35.4-35.4 M1156.2,365l-32.8,16.1 M1157.4,366.1l-16.3,32.5 M1166.1,357.2L1199,341
	 M1164.9,356.1l16.3-32.5 M1176.7,361.5c0.1-2.3-0.4-4.6-1.2-6.6 M1145.8,360.2c-0.1,2.4,0.3,4.8,1.2,6.9 M1159.6,339.2l3.3,3.3
	 M1159.6,379.5l3.3,3.3 M1179.8,379.5l3.3,3.3 M1186.2,385.7l3.3,3.3 M1133.2,333l3.3,3.3 M1139.5,339.2l3.3,3.3 M1155.6,355.2
	l3.3,3.3 M1163.6,363.4l3.3,3.3 M1168.4,353.9l30.8-30.8 M1123.4,398.8l30.4-30.4 M1075.6,606.7l-32.8,16.1 M1076.9,607.7
	l-16.3,32.5 M1085.6,598.9l32.8-16.1 M1084.3,597.8l16.3-32.5 M1096.2,603.2c0.1-2.3-0.4-4.6-1.2-6.6 M1065.2,601.9
	c-0.1,2.4,0.3,4.8,1.2,6.9 M1079,580.9l3.3,3.3 M1079,621.2l3.3,3.3"/>
<path fill="none" stroke="#D1B387" stroke-width="1.028" stroke-miterlimit="10" d="M659.4,503.6l-3.3-3.3 M653.2,497.2l-3.3-3.3
	 M705.9,550.2l-3.3-3.3 M699.7,543.8l-3.3-3.3 M683.7,527.7l-3.3-3.3 M675.5,519.8l-3.3-3.3 M685,515l30.8-30.8 M640.1,559.9
	l30.3-30.4 M671.1,425.3c2.1-0.9,4.4-1.4,6.8-1.4c2.3,0,4.6,0.5,6.6,1.3 M685,457.6c-2.2,1-4.6,1.5-7.1,1.5c-2.4,0-4.7-0.5-6.8-1.4
	 M682.9,445.5l32.8,16.1 M681.6,446.5l16.3,32.5 M674.1,446.5L658,479.3 M673,445.2l-32.5,16.3 M658,461.6l-17.7,17.7 M672.9,437.8
	l-32.8-16.1 M674.2,436.7l-16.3-32.5 M681.9,436.5l16.1-32.8 M683,437.8l32.5-16.3 M698.1,421.4l17.7-17.7 M659.4,423.2l-3.3-3.3
	 M653.2,416.9l-3.3-3.3 M705.9,469.8l-3.3-3.3 M699.7,463.5l-3.3-3.3 M694.2,367.6c0.8-2,1.3-4.3,1.3-6.6c0-2.4-0.5-4.6-1.3-6.6
	 M684.7,344.8c-2.1-0.9-4.4-1.4-6.8-1.4c-2.3,0-4.6,0.5-6.6,1.3 M661.9,353.8c-1,2.2-1.5,4.6-1.5,7.2c0,2.6,0.5,5,1.5,7.2
	 M670.8,377c2.2,1,4.6,1.5,7.1,1.5c2.4,0,4.7-0.5,6.8-1.4 M672.9,365l-32.8,16.1 M674.2,366l-16.3,32.5 M657.8,381.1l-17.7,17.7
	 M681.7,365.9l16.1,32.8 M682.8,364.7l32.5,16.3 M697.9,381.1l17.7,17.7 M682.9,357.2l32.8-16.1 M681.6,356.2l16.3-32.5 M698,341.1
	l17.7-17.7 M673.9,356l-16.1-32.8 M672.9,357.2l-32.5-16.3 M657.8,340.8L640,323.1 M843.1,436.4l16.1-32.8 M844.1,437.7l32.5-16.3
	 M835.3,446.4l-16.1,32.8 M834.2,445.1l-32.5,16.3 M839.6,457c-2.3,0.1-4.6-0.4-6.6-1.2 M838.3,426.1c2.4-0.1,4.8,0.3,6.9,1.2
	 M817.3,439.9l3.3,3.3 M857.6,439.9l3.3,3.3 M857.6,460.1l3.3,3.3 M863.8,466.4l3.3,3.3 M811.1,413.5l3.3,3.3 M817.3,419.8l3.3,3.3
	 M833.3,435.9l3.3,3.3 M841.5,443.9l3.3,3.3 M832,448.6l-30.8,30.8 M876.9,403.7l-30.4,30.4 M923.6,436.4l16.1-32.8 M924.7,437.7
	l32.5-16.3 M915.8,446.4l-16.1,32.8 M914.7,445.1l-32.5,16.3 M920.2,457c-2.3,0.1-4.6-0.4-6.6-1.2 M918.8,426.1
	c2.4-0.1,4.8,0.3,6.9,1.2 M897.8,439.9l3.3,3.3 M938.1,439.9l3.3,3.3 M938.1,460.1l3.3,3.3 M944.3,466.4l3.3,3.3 M891.6,413.5
	l3.3,3.3 M897.8,419.8l3.3,3.3 M913.8,435.9l3.3,3.3 M922,443.9l3.3,3.3 M912.5,448.6l-30.8,30.8 M957.4,403.7l-30.4,30.4
	 M845.9,538.3c-2.1,0.9-4.4,1.4-6.8,1.4c-2.3,0-4.6-0.5-6.6-1.3 M831.9,506c2.2-1,4.6-1.5,7.1-1.5c2.4,0,4.7,0.5,6.8,1.4 M834,518.1
	L801.2,502 M835.3,517.1L819,484.6 M842.9,517.1l16.1-32.8 M843.9,518.4l32.5-16.3 M859,502l17.7-17.7 M844,525.9l32.8,16.1
	 M842.7,526.9l16.3,32.5 M835,527.1l-16.1,32.8 M834,525.8l-32.5,16.3 M818.9,542.3L801.2,560 M857.5,540.4l3.3,3.3 M863.8,546.8
	l3.3,3.3 M811,493.8l3.3,3.3 M817.3,500.2l3.3,3.3 M926.4,538.3c-2.1,0.9-4.4,1.4-6.8,1.4c-2.3,0-4.6-0.5-6.6-1.3 M912.5,506
	c2.2-1,4.6-1.5,7.1-1.5c2.4,0,4.7,0.5,6.8,1.4 M914.6,518.1L881.8,502 M915.9,517.1l-16.3-32.5 M923.4,517.1l16.1-32.8 M924.5,518.4
	l32.5-16.3 M939.5,502l17.7-17.7 M924.6,525.9l32.8,16.1 M923.3,526.9l16.3,32.5 M915.6,527.1l-16.1,32.8 M914.5,525.8L882,542.1
	 M899.4,542.3L881.7,560 M938.1,540.4l3.3,3.3 M944.3,546.8l3.3,3.3 M891.6,493.8l3.3,3.3 M897.8,500.2l3.3,3.3 M934.9,358.6
	c-0.4-2.3-1.2-4.4-2.5-6.3 M904.3,363.1c0.3,2.4,1.2,4.6,2.5,6.5 M917.9,339.2l3.3,3.3 M917.9,379.5l3.3,3.3 M938.1,379.5l3.3,3.3
	 M944.5,385.7l3.3,3.3 M891.5,333l3.3,3.3 M897.9,339.2l3.3,3.3 M914,355.2l3.3,3.3 M921.9,363.4l3.3,3.3 M881.8,361h35.5
	 M921.9,361h35.5 M922,358.5l35.4-35.4 M933.7,340.9l17.7-17.7 M887.8,398.8l17.7-17.7 M881.8,398.8l35.4-35.4 M833.9,365
	l-32.8,16.1 M835.2,366.1l-16.3,32.5 M843.9,357.2l32.8-16.1 M842.6,356.1l16.3-32.5 M854.5,361.5c0.1-2.3-0.4-4.6-1.2-6.6
	 M823.6,360.2c-0.1,2.4,0.3,4.8,1.2,6.9 M837.4,339.2l3.3,3.3 M837.4,379.5l3.3,3.3 M857.6,379.5l3.3,3.3 M863.9,385.7l3.3,3.3
	 M810.9,333l3.3,3.3 M817.3,339.2l3.3,3.3 M833.4,355.2l3.3,3.3 M841.4,363.4l3.3,3.3 M846.1,353.9l30.8-30.8 M801.2,398.8
	l30.4-30.4 M753.3,606.7l-32.8,16.1 M754.6,607.7l-16.3,32.5 M763.3,598.9l32.8-16.1 M762.1,597.8l16.3-32.5 M773.9,603.2
	c0.1-2.3-0.4-4.6-1.2-6.6 M743,601.9c-0.1,2.4,0.3,4.8,1.2,6.9 M756.8,580.9l3.3,3.3 M756.8,621.2l3.3,3.3 M777,621.2l3.3,3.3
	 M783.3,627.4l3.3,3.3 M730.4,574.7l3.3,3.3 M736.7,580.9l3.3,3.3 M752.8,596.9l3.3,3.3 M760.8,605.1l3.3,3.3 M765.6,595.6
	l30.8-30.8 M720.6,640.5l30.4-30.4 M774.7,448.4c0.9-2.1,1.4-4.4,1.4-6.8c0-2.3-0.5-4.6-1.3-6.6 M742.4,434.4
	c-1,2.2-1.5,4.6-1.5,7.1c0,2.4,0.5,4.7,1.4,6.8 M754.5,436.5l-16.1-32.8 M753.5,437.8L721,421.5 M753.5,445.4l-32.8,16.1
	 M754.8,446.4l-16.3,32.5 M738.4,461.5l-17.7,17.7 M762.3,446.5l16.1,32.8 M763.3,445.2l32.5,16.3 M763.5,437.5l32.8-16.1
	 M762.2,436.5l16.3-32.5 M778.6,421.4l17.7-17.7 M776.8,460l3.3,3.3 M783.2,466.3l3.3,3.3 M730.2,413.5l3.3,3.3 M736.6,419.8
	l3.3,3.3 M774.7,367.8c0.9-2.1,1.4-4.4,1.4-6.8c0-2.3-0.5-4.6-1.3-6.6 M742.4,353.9c-1,2.2-1.5,4.6-1.5,7.1c0,2.4,0.5,4.7,1.4,6.8
	 M754.5,356l-16.1-32.8 M753.5,357.2L721,341 M753.5,364.8l-32.8,16.1 M754.8,365.8l-16.3,32.5 M738.4,380.9l-17.7,17.7
	 M762.3,365.9l16.1,32.8 M763.3,364.7l32.5,16.3 M763.5,356.9l32.8-16.1 M762.2,355.9l16.3-32.5 M778.6,340.8l17.7-17.7
	 M776.8,379.5l3.3,3.3 M783.2,385.7l3.3,3.3 M730.2,333l3.3,3.3 M736.6,339.2l3.3,3.3 M855.2,609.5c0.9-2.1,1.4-4.4,1.4-6.8
	c0-2.3-0.5-4.6-1.3-6.6 M822.9,595.6c-1,2.2-1.5,4.6-1.5,7.1c0,2.4,0.5,4.7,1.4,6.8 M835,597.7l-16.1-32.8 M834,598.9l-32.5-16.3
	 M834.1,606.5l-32.8,16.1 M835.3,607.5l-16.3,32.5 M818.9,622.6l-17.7,17.7 M842.8,607.6l16.1,32.8 M843.8,606.4l32.5,16.3
	 M844,598.6l32.8-16.1 M842.8,597.6l16.3-32.5 M859.2,582.5l17.7-17.7 M857.4,621.2l3.3,3.3 M863.7,627.4l3.3,3.3 M810.7,574.7
	l3.3,3.3 M817.1,580.9l3.3,3.3"/>
<path fill="none" stroke="#D1B387" stroke-width="1.028" stroke-miterlimit="10" d="M754.4,527.2L738.3,560 M753.4,525.9l-32.5,16.3
	 M762.3,517.2l16.1-32.8 M763.3,518.5l32.5-16.3 M757.9,506.6c2.3-0.1,4.6,0.4,6.6,1.2 M759.3,537.6c-2.4,0.1-4.8-0.3-6.9-1.2
	 M780.3,523.8l-3.3-3.3 M740,523.8l-3.3-3.3 M740,503.6l-3.3-3.3 M733.8,497.2l-3.3-3.3 M786.5,550.2l-3.3-3.3 M780.3,543.8
	l-3.3-3.3 M764.3,527.7l-3.3-3.3 M756.1,519.8l-3.3-3.3 M765.6,515l30.8-30.8 M720.7,559.9l30.4-30.4 M673.9,527.2L657.7,560
	 M672.8,525.9l-32.5,16.3 M681.7,517.2l16.1-32.8 M682.7,518.5l32.5-16.3 M677.3,506.6c2.3-0.1,4.6,0.4,6.6,1.2 M678.7,537.6
	c-2.4,0.1-4.8-0.3-6.9-1.2 M699.7,523.8l-3.3-3.3 M659.4,523.8l-3.3-3.3"/>
</svg>
